<svg width="32" height="33" viewBox="0 0 32 33" fill="none" xmlns="http://www.w3.org/2000/svg">
<path d="M29.074 13.8071H28V13.75H16V19.25H23.5353C22.436 22.4517 19.482 24.75 16 24.75C11.582 24.75 7.99999 21.0561 7.99999 16.5C7.99999 11.9439 11.582 8.25 16 8.25C18.0393 8.25 19.8947 9.04338 21.3073 10.3393L25.0787 6.45013C22.6973 4.16144 19.512 2.75 16 2.75C8.63666 2.75 2.66666 8.90656 2.66666 16.5C2.66666 24.0934 8.63666 30.25 16 30.25C23.3633 30.25 29.3333 24.0934 29.3333 16.5C29.3333 15.5781 29.2413 14.6781 29.074 13.8071Z" fill="#FFC107"/>
<path d="M4.20401 10.1001L8.58468 13.4131C9.77001 10.3868 12.6407 8.25 16 8.25C18.0393 8.25 19.8947 9.04337 21.3073 10.3393L25.0787 6.45012C22.6973 4.16144 19.512 2.75 16 2.75C10.8787 2.75 6.43734 5.73169 4.20401 10.1001Z" fill="#FF3D00"/>
<path d="M16 30.25C19.444 30.25 22.5733 28.8908 24.9393 26.6805L20.8127 23.0794C19.429 24.1645 17.7383 24.7514 16 24.75C12.532 24.75 9.58734 22.4695 8.478 19.2871L4.13 22.7418C6.33667 27.1947 10.818 30.25 16 30.25Z" fill="#4CAF50"/>
<path d="M29.074 13.8071H28V13.75H16V19.25H23.5353C23.0095 20.7738 22.0622 22.1053 20.8107 23.0801L20.8127 23.0787L24.9393 26.6798C24.6473 26.9534 29.3333 23.375 29.3333 16.5C29.3333 15.5781 29.2413 14.6781 29.074 13.8071Z" fill="#1976D2"/>
</svg>
