<svg width="32" height="29" viewBox="0 0 32 29" fill="none" xmlns="http://www.w3.org/2000/svg">
<g clip-path="url(#clip0)">
<path d="M30.2339 29.0001C31.2091 29.0001 32 28.2835 32 27.3996V1.60055C32 0.716504 31.2091 0 30.2339 0H1.76612C0.7905 0 0 0.716504 0 1.60055V27.3996C0 28.2835 0.7905 29.0001 1.76612 29.0001H30.2339Z" fill="#395185"/>
<path d="M22.0794 29.0001V17.7697H26.239L26.8617 13.3931H22.0794V10.5987C22.0794 9.33153 22.4677 8.46798 24.4729 8.46798L27.0302 8.46697V4.55253C26.5877 4.49918 25.0697 4.38 23.3037 4.38C19.6165 4.38 17.0922 6.41963 17.0922 10.1654V13.3931H12.922V17.7697H17.0922V29.0001H22.0794Z" fill="white"/>
</g>
<defs>
<clipPath id="clip0">
<rect width="32" height="29" fill="white"/>
</clipPath>
</defs>
</svg>
