<svg width="23" height="19" viewBox="0 0 23 19" fill="none" xmlns="http://www.w3.org/2000/svg">
<path d="M11.5019 0.869084V8.57623L20.0616 8.57507L18.081 6.57731C17.9349 6.43015 17.846 6.23507 17.8306 6.02752C17.8152 5.81997 17.8742 5.61374 17.997 5.44632L18.081 5.34899C18.227 5.2018 18.4207 5.11231 18.6267 5.09678C18.8327 5.08126 19.0374 5.14073 19.2035 5.26439L19.3002 5.34899L22.7473 8.82189C22.8934 8.96905 22.9822 9.16414 22.9976 9.37169C23.013 9.57924 22.954 9.78547 22.8312 9.95288L22.7473 10.0502L19.3013 13.5312C19.1474 13.6857 18.9412 13.7759 18.7241 13.7839C18.507 13.792 18.2949 13.7171 18.1302 13.5744C17.9654 13.4317 17.8602 13.2317 17.8355 13.0142C17.8108 12.7967 17.8685 12.5779 17.997 12.4014L18.0798 12.3029L20.0501 10.3133L11.503 10.3144L11.5019 18.1305C11.5019 18.2574 11.4744 18.3828 11.4212 18.4979C11.368 18.6129 11.2905 18.7148 11.194 18.7964C11.0975 18.8781 10.9845 18.9374 10.8628 18.9703C10.7411 19.0032 10.6138 19.0088 10.4897 18.9868L0.713116 17.2463C0.513651 17.211 0.332896 17.106 0.202517 16.9499C0.0721367 16.7937 0.000444956 16.5963 0 16.3923V2.48676C2.94714e-06 2.28077 0.0726272 2.08148 0.204922 1.92443C0.337217 1.76737 0.520582 1.66276 0.722318 1.62925L10.4989 0.0115755C10.6224 -0.00893538 10.7488 -0.00212919 10.8695 0.0315216C10.9901 0.0651725 11.102 0.124862 11.1974 0.206448C11.2928 0.288034 11.3695 0.389562 11.4221 0.503987C11.4746 0.618412 11.5019 0.742993 11.5019 0.869084ZM7.47852 9.14983C7.17286 9.14983 6.87972 9.27217 6.66359 9.48992C6.44746 9.70767 6.32603 10.003 6.32603 10.3109C6.32603 10.6189 6.44746 10.9142 6.66359 11.132C6.87972 11.3497 7.17286 11.4721 7.47852 11.4721C7.78418 11.4721 8.07732 11.3497 8.29345 11.132C8.50959 10.9142 8.63101 10.6189 8.63101 10.3109C8.63101 10.003 8.50959 9.70767 8.29345 9.48992C8.07732 9.27217 7.78418 9.14983 7.47852 9.14983V9.14983Z" fill="black"/>
<path d="M12.6521 17.2625H13.532L13.6493 17.2556C13.8562 17.227 14.0458 17.1237 14.1829 16.9649C14.3199 16.8062 14.3952 16.6027 14.3946 16.3923L14.3866 11.4674H12.6521V17.2625Z" fill="black"/>
<path d="M12.6544 7.41165L12.6521 5.93419V1.61768H13.509C13.7173 1.61765 13.9185 1.69354 14.0756 1.83135C14.2327 1.96915 14.335 2.15956 14.3636 2.36742L14.3716 2.48561L14.3797 7.41165H12.6544V7.41165Z" fill="black"/>
</svg>
