<svg width="15" height="15" viewBox="0 0 15 15" fill="none" xmlns="http://www.w3.org/2000/svg">
<path d="M14.8049 0.59675C14.5714 0.21725 14.1646 0 13.6884 0C13.4114 0 13.1264 0.073 12.8414 0.21675C11.8776 0.70375 10.6509 1.58375 9.36365 2.6965L6.75215 2.40625L7.2254 1.93275L6.74815 1.45525L5.89265 2.3105L3.1699 2.00825L3.7374 1.44075L3.25965 0.963L2.3104 1.91275L0.317896 1.69125C-0.174105 1.6365 -0.0791046 2.873 0.492895 3.13975L6.21015 5.80475C5.10815 7.036 3.62165 8.85375 3.07265 10.2475L0.565396 9.969C0.395896 9.9505 0.428395 10.3753 0.625145 10.467C1.8904 11.0565 2.5544 11.3663 2.9034 11.529C2.9114 11.5553 2.92215 11.5803 2.9324 11.6053C2.4514 12.186 2.18115 12.6265 2.2789 12.7235C2.3754 12.8198 2.8134 12.551 3.39165 12.0715C3.41765 12.0825 3.44465 12.0932 3.47365 12.1025L4.53265 14.3752C4.62465 14.5722 5.04965 14.604 5.0309 14.435L4.75365 11.9347C5.9689 11.4487 7.6339 10.208 9.19965 8.799L11.8594 14.5065C12.1264 15.0798 13.3634 15.1737 13.3086 14.6812L13.0871 12.6885L14.0364 11.7395L13.5586 11.2618L12.9916 11.829L12.6894 9.106L13.5441 8.2515L13.0664 7.7735L12.5936 8.2465L12.3036 5.63625C13.4169 4.349 14.2969 3.12225 14.7834 2.1585C15.0646 1.60025 15.0724 1.031 14.8049 0.59675V0.59675ZM14.3551 1.9425C13.6861 3.268 12.1784 5.2125 10.2249 7.1655C8.1154 9.2755 6.01815 10.863 4.6979 11.4373L4.6399 10.9128C5.62915 9.90225 6.3024 8.9875 6.1589 8.842C6.0134 8.6975 5.0984 9.37125 4.08765 10.3608L3.5599 10.302C4.13565 8.982 5.72665 6.88325 7.8349 4.775C9.78815 2.822 11.7324 1.31425 13.0576 0.64475C13.2836 0.531 13.4976 0.4795 13.6886 0.4795C14.3711 0.47925 14.7619 1.13575 14.3551 1.9425" fill="black"/>
</svg>
