<svg width="21" height="18" viewBox="0 0 21 18" fill="none" xmlns="http://www.w3.org/2000/svg">
<path d="M0 2.57143C0 1.88944 0.276562 1.23539 0.768845 0.753154C1.26113 0.270918 1.92881 0 2.625 0H18.375C19.0712 0 19.7389 0.270918 20.2312 0.753154C20.7234 1.23539 21 1.88944 21 2.57143V15.4286C21 16.1106 20.7234 16.7646 20.2312 17.2468C19.7389 17.7291 19.0712 18 18.375 18H2.625C1.92881 18 1.26113 17.7291 0.768845 17.2468C0.276562 16.7646 0 16.1106 0 15.4286V2.57143V2.57143ZM1.3125 14.1429V15.4286C1.3125 15.7696 1.45078 16.0966 1.69692 16.3377C1.94306 16.5788 2.2769 16.7143 2.625 16.7143H18.375C18.7231 16.7143 19.0569 16.5788 19.3031 16.3377C19.5492 16.0966 19.6875 15.7696 19.6875 15.4286V10.9286L14.7302 8.42529C14.6071 8.36489 14.4677 8.34394 14.3318 8.36539C14.1959 8.38685 14.0704 8.44963 13.9729 8.54486L9.1035 13.3149L5.61225 11.0366C5.4862 10.9544 5.335 10.9174 5.18429 10.9319C5.03359 10.9464 4.89265 11.0116 4.78537 11.1163L1.3125 14.1429ZM7.875 5.78571C7.875 5.27423 7.66758 4.78369 7.29837 4.42201C6.92915 4.06033 6.42839 3.85714 5.90625 3.85714C5.38411 3.85714 4.88335 4.06033 4.51413 4.42201C4.14492 4.78369 3.9375 5.27423 3.9375 5.78571C3.9375 6.2972 4.14492 6.78774 4.51413 7.14942C4.88335 7.5111 5.38411 7.71429 5.90625 7.71429C6.42839 7.71429 6.92915 7.5111 7.29837 7.14942C7.66758 6.78774 7.875 6.2972 7.875 5.78571Z" fill="black"/>
</svg>
