<svg width="61" height="61" viewBox="0 0 61 61" fill="none" xmlns="http://www.w3.org/2000/svg">
<path d="M30.75 0.5625C14.183 0.5625 0.75 13.9955 0.75 30.5625C0.75 47.1295 14.183 60.5625 30.75 60.5625C47.317 60.5625 60.75 47.1295 60.75 30.5625C60.75 13.9955 47.317 0.5625 30.75 0.5625ZM41.933 42.9911C39.2143 45.4955 35.5045 46.9688 31.0781 46.9688C24.6696 46.9688 19.125 43.2924 16.4263 37.9353C15.3147 35.7188 14.6786 33.2143 14.6786 30.5625C14.6786 27.9107 15.3147 25.4063 16.4263 23.1897C19.125 17.8259 24.6696 14.1496 31.0781 14.1496C35.4978 14.1496 39.2076 15.7768 42.0536 18.4219L37.3527 23.1295C35.6518 21.5022 33.4888 20.6786 31.0848 20.6786C26.8125 20.6786 23.1964 23.5647 21.904 27.442C21.5759 28.4263 21.3884 29.4777 21.3884 30.5625C21.3884 31.6473 21.5759 32.6987 21.904 33.683C23.1964 37.5603 26.8125 40.4464 31.0781 40.4464C33.288 40.4464 35.1629 39.8638 36.6295 38.8795C38.3705 37.7143 39.5223 35.9799 39.904 33.9241H31.0781V27.5759H46.5268C46.721 28.654 46.8214 29.7723 46.8214 30.9308C46.8214 35.933 45.0335 40.1317 41.933 42.9911Z" fill="black"/>
</svg>
