<svg width="63" height="61" viewBox="0 0 63 61" fill="none" xmlns="http://www.w3.org/2000/svg">
<rect width="63" height="61" rx="20" fill="#E4E4FF"/>
<path d="M30.8289 25.3734H24.5157C23.8486 25.3732 23.1976 25.5783 22.651 25.9609C22.1045 26.3434 21.6889 26.885 21.4607 27.5119L15.3507 44.3176C15.1346 44.9107 15.2825 45.5754 15.7277 46.0222L16.2039 46.4984L26.6396 36.0626C26.638 36.0204 26.6266 35.9781 26.6266 35.9359C26.6266 35.4538 26.7696 34.9825 27.0374 34.5817C27.3053 34.1808 27.6859 33.8684 28.1313 33.6839C28.5767 33.4994 29.0668 33.4512 29.5397 33.5452C30.0125 33.6393 30.4468 33.8714 30.7877 34.2123C31.1286 34.5532 31.3607 34.9875 31.4548 35.4603C31.5488 35.9332 31.5006 36.4233 31.3161 36.8687C31.1316 37.3141 30.8192 37.6947 30.4183 37.9626C30.0175 38.2304 29.5462 38.3734 29.0641 38.3734C29.0219 38.3734 28.9796 38.362 28.9374 38.3604L18.5016 48.7961L18.9777 49.2722C19.1962 49.4913 19.4729 49.6432 19.7749 49.71C20.077 49.7768 20.3919 49.7557 20.6824 49.6492L37.4881 43.5376C38.115 43.3095 38.6565 42.8939 39.0391 42.3473C39.4217 41.8008 39.6268 41.1498 39.6266 40.4826V34.1695L42.875 30.9227L34.0772 22.125L30.8289 25.3734ZM44.4025 28.7241L36.2775 20.5991L39.7225 17.1525L47.8475 25.2775L44.4025 28.7241Z" fill="#7A7EF4"/>
</svg>
