<svg width="63" height="61" viewBox="0 0 63 61" fill="none" xmlns="http://www.w3.org/2000/svg">
<rect width="63" height="61" rx="20" fill="#FFD9F1"/>
<path d="M45.5 25L35.75 15.25H22.75C21.888 15.25 21.0614 15.5924 20.4519 16.2019C19.8424 16.8114 19.5 17.638 19.5 18.5V44.5C19.5 45.362 19.8424 46.1886 20.4519 46.7981C21.0614 47.4076 21.888 47.75 22.75 47.75H42.25C43.112 47.75 43.9386 47.4076 44.5481 46.7981C45.1576 46.1886 45.5 45.362 45.5 44.5V25ZM27.625 42.875H24.375V28.25H27.625V42.875ZM34.125 42.875H30.875V33.125H34.125V42.875ZM40.625 42.875H37.375V38H40.625V42.875ZM35.75 26.625H34.125V18.5L42.25 26.625H35.75Z" fill="#F93878"/>
</svg>
