<svg width="63" height="61" viewBox="0 0 63 61" fill="none" xmlns="http://www.w3.org/2000/svg">
<rect width="63" height="61" rx="20" fill="#C3F1EC"/>
<path d="M45.5 16.25H19.5C17.7076 16.25 16.25 17.7076 16.25 19.5V39C16.25 40.7924 17.7076 42.25 19.5 42.25H24.375V48.3698L34.5751 42.25H45.5C47.2924 42.25 48.75 40.7924 48.75 39V19.5C48.75 17.7076 47.2924 16.25 45.5 16.25ZM45.5 39H33.6749L27.625 42.6302V39H19.5V19.5H45.5V39Z" fill="#00CEB1"/>
<path d="M37.375 32.5C39.1699 32.5 40.625 31.0449 40.625 29.25C40.625 27.4551 39.1699 26 37.375 26C35.5801 26 34.125 27.4551 34.125 29.25C34.125 31.0449 35.5801 32.5 37.375 32.5Z" fill="#00CEB1"/>
<path d="M27.625 32.5C29.4199 32.5 30.875 31.0449 30.875 29.25C30.875 27.4551 29.4199 26 27.625 26C25.8301 26 24.375 27.4551 24.375 29.25C24.375 31.0449 25.8301 32.5 27.625 32.5Z" fill="#00CEB1"/>
</svg>
