<svg width="63" height="61" viewBox="0 0 63 61" fill="none" xmlns="http://www.w3.org/2000/svg">
<rect width="63" height="61" rx="20" fill="#9BCAFF"/>
<path d="M34.775 15.406C32.0956 15.0393 29.3671 15.3416 26.833 16.2861C24.2989 17.2306 22.0381 18.7879 20.2524 20.8189C18.7241 22.579 17.5902 24.6459 16.9267 26.8806C16.2633 29.1152 16.0858 31.466 16.406 33.775C17.2673 40.1027 22.0253 45.4864 28.2442 47.1747C29.6305 47.5541 31.0611 47.7476 32.4984 47.75L32.7292 47.7484C33.5507 47.7378 34.3562 47.5198 35.071 47.1147C35.7857 46.7096 36.3865 46.1305 36.8177 45.4311C37.2502 44.7355 37.4999 43.9418 37.5433 43.1239C37.5868 42.3059 37.4227 41.4903 37.0663 40.7527L36.7429 40.0767C36.4942 39.5908 36.3774 39.0481 36.4042 38.5028C36.431 37.9576 36.6005 37.429 36.8957 36.9697C37.318 36.2837 37.9797 35.7785 38.7529 35.5519C39.5261 35.3253 40.3558 35.3933 41.0817 35.7429L41.7512 36.063C42.4207 36.3847 43.1324 36.5489 43.8653 36.5489C45.1479 36.5423 46.377 36.0342 47.2898 35.1332C48.2026 34.2322 48.7267 33.0099 48.75 31.7275C48.7702 30.213 48.5771 28.7032 48.1764 27.2425C46.4864 21.0252 41.1028 16.2672 34.775 15.406ZM43.1568 33.1331L42.4873 32.813C39.5168 31.3862 35.8735 32.4912 34.1429 35.2407C32.9437 37.1517 32.8218 39.4267 33.8114 41.484L34.1348 42.16C34.256 42.4056 34.312 42.6782 34.2975 42.9516C34.283 43.2251 34.1984 43.4903 34.0519 43.7216C33.9091 43.958 33.708 44.1537 33.4678 44.29C33.2277 44.4263 32.9565 44.4986 32.6804 44.5H32.4984C31.3484 44.4968 30.2037 44.3422 29.094 44.0401C24.1167 42.6897 20.3142 38.3867 19.6268 33.3379C19.1052 29.511 20.1988 25.8255 22.7029 22.9557C24.1276 21.3214 25.9384 20.0692 27.9704 19.3131C30.0025 18.557 32.1914 18.3211 34.3379 18.6267C39.3868 19.3141 43.6898 23.1182 45.0402 28.094C45.3619 29.2802 45.5163 30.4892 45.4984 31.6804C45.4789 32.9917 44.1253 33.6027 43.1568 33.1331Z" fill="#095FC1"/>
<path d="M25.1875 38C26.5337 38 27.625 36.9087 27.625 35.5625C27.625 34.2163 26.5337 33.125 25.1875 33.125C23.8413 33.125 22.75 34.2163 22.75 35.5625C22.75 36.9087 23.8413 38 25.1875 38Z" fill="#095FC1"/>
<path d="M25.1875 31.5C26.5337 31.5 27.625 30.4087 27.625 29.0625C27.625 27.7163 26.5337 26.625 25.1875 26.625C23.8413 26.625 22.75 27.7163 22.75 29.0625C22.75 30.4087 23.8413 31.5 25.1875 31.5Z" fill="#095FC1"/>
<path d="M30.0625 26.625C31.4087 26.625 32.5 25.5337 32.5 24.1875C32.5 22.8413 31.4087 21.75 30.0625 21.75C28.7163 21.75 27.625 22.8413 27.625 24.1875C27.625 25.5337 28.7163 26.625 30.0625 26.625Z" fill="#095FC1"/>
<path d="M36.5625 26.625C37.9087 26.625 39 25.5337 39 24.1875C39 22.8413 37.9087 21.75 36.5625 21.75C35.2163 21.75 34.125 22.8413 34.125 24.1875C34.125 25.5337 35.2163 26.625 36.5625 26.625Z" fill="#095FC1"/>
</svg>
