<svg width="63" height="61" viewBox="0 0 63 61" fill="none" xmlns="http://www.w3.org/2000/svg">
<rect width="63" height="61" rx="20" fill="#DBDBDB"/>
<path d="M20.1667 28.9583H29.4167C29.8255 28.9583 30.2177 28.7959 30.5068 28.5068C30.7959 28.2177 30.9583 27.8255 30.9583 27.4167V18.1667C30.9583 17.7578 30.7959 17.3657 30.5068 17.0765C30.2177 16.7874 29.8255 16.625 29.4167 16.625H20.1667C19.7578 16.625 19.3657 16.7874 19.0765 17.0765C18.7874 17.3657 18.625 17.7578 18.625 18.1667V27.4167C18.625 27.8255 18.7874 28.2177 19.0765 28.5068C19.3657 28.7959 19.7578 28.9583 20.1667 28.9583ZM35.5833 28.9583H44.8333C45.2422 28.9583 45.6343 28.7959 45.9235 28.5068C46.2126 28.2177 46.375 27.8255 46.375 27.4167V18.1667C46.375 17.7578 46.2126 17.3657 45.9235 17.0765C45.6343 16.7874 45.2422 16.625 44.8333 16.625H35.5833C35.1745 16.625 34.7823 16.7874 34.4932 17.0765C34.2041 17.3657 34.0417 17.7578 34.0417 18.1667V27.4167C34.0417 27.8255 34.2041 28.2177 34.4932 28.5068C34.7823 28.7959 35.1745 28.9583 35.5833 28.9583ZM20.1667 44.375H29.4167C29.8255 44.375 30.2177 44.2126 30.5068 43.9235C30.7959 43.6343 30.9583 43.2422 30.9583 42.8333V33.5833C30.9583 33.1745 30.7959 32.7823 30.5068 32.4932C30.2177 32.2041 29.8255 32.0417 29.4167 32.0417H20.1667C19.7578 32.0417 19.3657 32.2041 19.0765 32.4932C18.7874 32.7823 18.625 33.1745 18.625 33.5833V42.8333C18.625 43.2422 18.7874 43.6343 19.0765 43.9235C19.3657 44.2126 19.7578 44.375 20.1667 44.375ZM40.2083 44.375C43.6092 44.375 46.375 41.6092 46.375 38.2083C46.375 34.8074 43.6092 32.0417 40.2083 32.0417C36.8074 32.0417 34.0417 34.8074 34.0417 38.2083C34.0417 41.6092 36.8074 44.375 40.2083 44.375Z" fill="#9B9B9B"/>
</svg>
