<svg width="63" height="61" viewBox="0 0 63 61" fill="none" xmlns="http://www.w3.org/2000/svg">
<rect width="63" height="61" rx="20" fill="#FFF1D9"/>
<path d="M23.9844 36.2691L26.0157 33.7309L19.4767 28.5L26.0157 23.2691L23.9844 20.7309L15.8594 27.2309C15.669 27.3831 15.5153 27.5762 15.4097 27.7959C15.3041 28.0156 15.2493 28.2562 15.2493 28.5C15.2493 28.7438 15.3041 28.9844 15.4097 29.2041C15.5153 29.4238 15.669 29.6169 15.8594 29.7691L23.9844 36.2691ZM39.0157 20.7309L36.9844 23.2691L43.5234 28.5L36.9844 33.7309L39.0157 36.2691L47.1407 29.7691C47.331 29.6169 47.4847 29.4238 47.5903 29.2041C47.6959 28.9844 47.7508 28.7438 47.7508 28.5C47.7508 28.2562 47.6959 28.0156 47.5903 27.7959C47.4847 27.5762 47.331 27.3831 47.1407 27.2309L39.0157 20.7309ZM36.336 14.226L29.836 43.476L26.6624 42.7708L33.1624 13.5208L36.336 14.226Z" fill="#FFD527"/>
</svg>
