<svg width="63" height="61" viewBox="0 0 63 61" fill="none" xmlns="http://www.w3.org/2000/svg">
<rect width="63" height="61" rx="20" fill="#C3F1EC"/>
<path d="M27 30.5845C30.2419 30.5845 32.6875 28.1389 32.6875 24.897C32.6875 21.6551 30.2419 19.2095 27 19.2095C23.7581 19.2095 21.3125 21.6551 21.3125 24.897C21.3125 28.1389 23.7581 30.5845 27 30.5845ZM28.625 32.125H25.375C20.8949 32.125 17.25 35.7699 17.25 40.25V41.875H36.75V40.25C36.75 35.7699 33.1051 32.125 28.625 32.125ZM43.8415 15.2835L41.5438 17.5812C43.6904 19.7311 44.875 22.5879 44.875 25.625C44.875 28.6621 43.6904 31.5189 41.5438 33.6687L43.8415 35.9665C46.604 33.2024 48.125 29.5299 48.125 25.625C48.125 21.7201 46.604 18.0476 43.8415 15.2835Z" fill="#00CEB1"/>
<path d="M39.2444 19.879L36.9467 22.18C37.868 23.0981 38.375 24.3217 38.375 25.625C38.375 26.9282 37.868 28.1519 36.9467 29.07L39.2444 31.371C40.7784 29.837 41.625 27.7976 41.625 25.625C41.625 23.4524 40.7784 21.413 39.2444 19.879Z" fill="#00CEB1"/>
</svg>
