<svg width="63" height="61" viewBox="0 0 63 61" fill="none" xmlns="http://www.w3.org/2000/svg">
<rect width="63" height="61" rx="20" fill="#FFF1D9"/>
<path d="M33.0239 17.7261C32.8732 17.575 32.6941 17.4551 32.4969 17.3734C32.2998 17.2917 32.0884 17.2498 31.875 17.25H23.75C23.5366 17.2498 23.3252 17.2917 23.1281 17.3734C22.9309 17.4551 22.7518 17.575 22.6011 17.7261L17.7261 22.6011C17.5749 22.7518 17.455 22.9308 17.3733 23.128C17.2916 23.3252 17.2497 23.5366 17.25 23.75V31.875C17.25 32.3073 17.4206 32.72 17.7261 33.0239L33.9761 49.2739C34.1267 49.4253 34.3057 49.5455 34.5029 49.6275C34.7 49.7095 34.9115 49.7517 35.125 49.7517C35.3385 49.7517 35.55 49.7095 35.7471 49.6275C35.9443 49.5455 36.1233 49.4253 36.2739 49.2739L49.2739 36.2739C49.4249 36.1231 49.5447 35.944 49.6265 35.7469C49.7082 35.5497 49.7503 35.3384 49.7503 35.125C49.7503 34.9116 49.7082 34.7003 49.6265 34.5031C49.5447 34.306 49.4249 34.1269 49.2739 33.9761L33.0239 17.7261ZM35.125 45.8273L20.5 31.2023V24.4228L24.4228 20.5H31.2023L45.8273 35.125L35.125 45.8273Z" fill="#FFD527"/>
<path d="M27.5737 30.25C29.0518 30.25 30.2501 29.0517 30.2501 27.5736C30.2501 26.0955 29.0518 24.8972 27.5737 24.8972C26.0956 24.8972 24.8973 26.0955 24.8973 27.5736C24.8973 29.0517 26.0956 30.25 27.5737 30.25Z" fill="#FFD527"/>
</svg>
