<svg xmlns="http://www.w3.org/2000/svg" xmlns:xlink="http://www.w3.org/1999/xlink" viewBox="0 0 60.25 60.25"><defs><style>.cls-1{stroke:#e4effa;stroke-miterlimit:10;stroke-width:0.25px;fill:url(#Degradado_sin_nombre_9);}.cls-2{fill:#fff;}</style><linearGradient id="Degradado_sin_nombre_9" x1="0.13" y1="30.13" x2="60.13" y2="30.13" gradientUnits="userSpaceOnUse"><stop offset="0" stop-color="#448cca"/><stop offset="1" stop-color="#4792cf"/></linearGradient></defs><g id="Capa_2" data-name="Capa 2"><g id="Capa_1-2" data-name="Capa 1"><path class="cls-1" d="M.12,58.25V9.5c0-5.17,4-9.38,8.79-9.38H51.34c4.84,0,8.78,4.21,8.78,9.38v30c0,5.17-3.94,9.37-8.78,9.37H13.16l-10,10.7A1.75,1.75,0,0,1,.12,58.25Z"/><path class="cls-2" d="M30.79,18.87a5.47,5.47,0,0,0-5.27,5.63,5.46,5.46,0,0,0,5.27,5.62,5.46,5.46,0,0,0,5.28-5.62A5.47,5.47,0,0,0,30.79,18.87Zm-14.06,0a5.47,5.47,0,0,0-5.27,5.63,5.46,5.46,0,0,0,5.27,5.62A5.46,5.46,0,0,0,22,24.5,5.47,5.47,0,0,0,16.73,18.87Zm28.13,0a5.47,5.47,0,0,0-5.28,5.63,5.29,5.29,0,1,0,10.55,0A5.47,5.47,0,0,0,44.86,18.87Z"/></g></g></svg>