<svg xmlns="http://www.w3.org/2000/svg" xmlns:xlink="http://www.w3.org/1999/xlink" viewBox="0 0 61.96 63.06"><defs><style>.cls-1{fill:none;stroke-width:4px;stroke:url(#Degradado_sin_nombre_3);}.cls-1,.cls-2{stroke-miterlimit:10;}.cls-2{fill:url(#Degradado_sin_nombre_23);stroke:url(#Degradado_sin_nombre_3-2);}.cls-3{fill:#fff;}</style><linearGradient id="Degradado_sin_nombre_3" y1="31.53" x2="61.96" y2="31.53" gradientUnits="userSpaceOnUse"><stop offset="0" stop-color="#f3978d"/><stop offset="1" stop-color="#e83b68"/></linearGradient><linearGradient id="Degradado_sin_nombre_23" x1="17.74" y1="21.48" x2="42.05" y2="21.48" gradientUnits="userSpaceOnUse"><stop offset="0" stop-color="#f3988d"/><stop offset="1" stop-color="#e94383"/></linearGradient><linearGradient id="Degradado_sin_nombre_3-2" x1="17.24" y1="21.48" x2="42.55" y2="21.48" xlink:href="#Degradado_sin_nombre_3"/></defs><g id="Capa_2" data-name="Capa 2"><g id="Capa_1-2" data-name="Capa 1"><path class="cls-1" d="M52.14,2H9.83A7.84,7.84,0,0,0,2,9.83V35a7.83,7.83,0,0,0,7.83,7.83V58.24L24.89,43.18l-5.7-.35h33A7.82,7.82,0,0,0,60,35V9.83A7.83,7.83,0,0,0,52.14,2Z"/><path class="cls-2" d="M37.18,25.59a4.87,4.87,0,0,0-3.36,1.35l-5.2-3.22a5.66,5.66,0,0,0,0-4.47L33.82,16a4.84,4.84,0,1,0-1-1.3l-5.08,3.14a5.68,5.68,0,1,0,0,7.24l5.08,3.15a4.8,4.8,0,0,0-.53,2.2,4.87,4.87,0,1,0,4.86-4.86Z"/><rect class="cls-3" x="16.55" y="37.33" width="4.87" height="9.9" transform="translate(35.46 -1.04) rotate(45)"/></g></g></svg>