<svg id="Capa_1" data-name="Capa 1" xmlns="http://www.w3.org/2000/svg" xmlns:xlink="http://www.w3.org/1999/xlink" viewBox="0 0 392.42 86.32"><defs><style>.cls-1{fill:none;stroke-width:4px;stroke:url(#Degradado_sin_nombre_3);}.cls-1,.cls-2{stroke-miterlimit:10;}.cls-2{fill:url(#Degradado_sin_nombre_23);stroke:url(#Degradado_sin_nombre_3-2);}.cls-3{fill:#fff;}.cls-4{font-size:45.57px;fill:#253241;font-family:Ubuntu-Medium, Ubuntu;font-weight:500;}.cls-5{letter-spacing:-0.01em;}.cls-6{fill:#e83b68;}</style><linearGradient id="Degradado_sin_nombre_3" x1="116.85" y1="274.45" x2="178.81" y2="274.45" gradientUnits="userSpaceOnUse"><stop offset="0" stop-color="#f3978d"/><stop offset="1" stop-color="#e83b68"/></linearGradient><linearGradient id="Degradado_sin_nombre_23" x1="134.59" y1="264.41" x2="158.89" y2="264.41" gradientUnits="userSpaceOnUse"><stop offset="0" stop-color="#f3988d"/><stop offset="1" stop-color="#e94383"/></linearGradient><linearGradient id="Degradado_sin_nombre_3-2" x1="134.09" y1="264.41" x2="159.39" y2="264.41" xlink:href="#Degradado_sin_nombre_3"/></defs><path class="cls-1" d="M169,244.92h-42.3a7.83,7.83,0,0,0-7.83,7.83v25.17a7.82,7.82,0,0,0,7.83,7.83v15.41l15.06-15.06-5.7-.35H169a7.82,7.82,0,0,0,7.83-7.83V252.75A7.83,7.83,0,0,0,169,244.92Z" transform="translate(-116.85 -240.22)"/><path class="cls-2" d="M154,268.51a4.83,4.83,0,0,0-3.36,1.36l-5.2-3.22a5.61,5.61,0,0,0,.46-2.24,5.54,5.54,0,0,0-.46-2.24l5.2-3.22a4.86,4.86,0,1,0-1.5-3.51,4.8,4.8,0,0,0,.53,2.2l-5.08,3.15a5.67,5.67,0,1,0,0,7.24l5.08,3.14a4.8,4.8,0,0,0-.53,2.2,4.86,4.86,0,1,0,4.86-4.86Z" transform="translate(-116.85 -240.22)"/><rect class="cls-3" x="133.4" y="279.25" width="4.87" height="9.9" transform="translate(123.9 -253.03) rotate(45)"/><text class="cls-4" transform="translate(71.85 38.57)"><tspan class="cls-5">C</tspan><tspan x="28.48" y="0">ourse</tspan><tspan class="cls-6" x="147.51" y="0">Share</tspan></text></svg>