<svg xmlns="http://www.w3.org/2000/svg" xmlns:xlink="http://www.w3.org/1999/xlink" viewBox="0 0 64 64"><defs><style>.cls-1{fill:#e4effa;stroke-width:4px;stroke:url(#Degradado_sin_nombre_9);}.cls-1,.cls-2{stroke-miterlimit:10;}.cls-2{stroke:#e4effa;stroke-width:0.25px;fill:url(#Degradado_sin_nombre_9-2);}</style><linearGradient id="Degradado_sin_nombre_9" y1="32" x2="64" y2="32" gradientUnits="userSpaceOnUse"><stop offset="0" stop-color="#448cca"/><stop offset="1" stop-color="#4792cf"/></linearGradient><linearGradient id="Degradado_sin_nombre_9-2" x1="12.66" y1="26.37" x2="51.34" y2="26.37" xlink:href="#Degradado_sin_nombre_9"/></defs><g id="Capa_2" data-name="Capa 2"><g id="Capa_1-2" data-name="Capa 1"><path class="cls-1" d="M2,60.12V11.37C2,6.21,5.94,2,10.79,2H53.21C58.06,2,62,6.21,62,11.37v30c0,5.17-3.94,9.38-8.79,9.38H15L5,61.45A1.75,1.75,0,0,1,2,60.12Z"/><path class="cls-2" d="M32,20.75a5.46,5.46,0,0,0-5.27,5.62A5.46,5.46,0,0,0,32,32a5.46,5.46,0,0,0,5.27-5.63A5.46,5.46,0,0,0,32,20.75Zm-14.06,0a5.46,5.46,0,0,0-5.28,5.62A5.47,5.47,0,0,0,17.94,32a5.46,5.46,0,0,0,5.27-5.63A5.46,5.46,0,0,0,17.94,20.75Zm28.12,0a5.46,5.46,0,0,0-5.27,5.62,5.29,5.29,0,1,0,10.55,0A5.46,5.46,0,0,0,46.06,20.75Z"/></g></g></svg>