<svg width="81" height="85" viewBox="0 0 81 85" fill="none" xmlns="http://www.w3.org/2000/svg">
<path d="M69.6667 31.6667H11.3333C6.73096 31.6667 3 35.3976 3 40V73.3334C3 77.9357 6.73096 81.6667 11.3333 81.6667H69.6667C74.269 81.6667 78 77.9357 78 73.3334V40C78 35.3976 74.269 31.6667 69.6667 31.6667Z" stroke="#BF863F" stroke-width="5" stroke-linecap="round" stroke-linejoin="round"/>
<path d="M15.5 15C15.5 11.6848 16.817 8.50537 19.1612 6.16117C21.5054 3.81696 24.6848 2.5 28 2.5H53C56.3152 2.5 59.4946 3.81696 61.8388 6.16117C64.183 8.50537 65.5 11.6848 65.5 15V31.6667H15.5V15Z" stroke="#BF863F" stroke-width="5" stroke-linecap="round" stroke-linejoin="round"/>
</svg>
