<svg width="272" height="174" viewBox="0 0 272 174" fill="none" xmlns="http://www.w3.org/2000/svg">
<path d="M17.352 123.354L16.264 128.282C17.2453 127.429 18.3333 126.746 19.528 126.234C20.7653 125.68 22.088 125.402 23.496 125.402C24.6053 125.402 25.6293 125.594 26.568 125.978C27.5067 126.362 28.3173 126.981 29 127.834C29.6827 128.688 30.216 129.797 30.6 131.162C30.984 132.485 31.176 134.128 31.176 136.09C31.176 137.456 31.0693 138.949 30.856 140.57C30.6427 142.192 30.3013 143.834 29.832 145.498C29.3627 147.12 28.7227 148.698 27.912 150.234C27.144 151.728 26.184 153.072 25.032 154.266C23.88 155.418 22.536 156.357 21 157.082C19.464 157.765 17.7147 158.106 15.752 158.106C14.6 158.106 13.5973 157.829 12.744 157.274C11.9333 156.677 11.2293 155.909 10.632 154.97L6.984 172.122L0.2 173.722L10.888 123.354H17.352ZM20.424 129.562C19.4427 129.562 18.5253 129.84 17.672 130.394C16.8613 130.949 16.0933 131.717 15.368 132.698L11.272 151.77C11.7413 152.581 12.296 153.157 12.936 153.498C13.6187 153.84 14.216 154.01 14.728 154.01C16.648 154.01 18.248 153.37 19.528 152.09C20.808 150.768 21.832 149.189 22.6 147.354C23.4107 145.477 23.9867 143.536 24.328 141.53C24.6693 139.482 24.84 137.712 24.84 136.218C24.84 134.938 24.712 133.872 24.456 133.018C24.2 132.165 23.8587 131.482 23.432 130.97C23.0053 130.458 22.536 130.096 22.024 129.882C21.512 129.669 20.9787 129.562 20.424 129.562ZM55.6145 131.994C55.6145 135.621 54.1852 138.565 51.3265 140.826C48.5105 143.045 44.6065 144.41 39.6145 144.922C39.5718 145.264 39.5505 145.605 39.5505 145.946C39.5505 146.245 39.5505 146.565 39.5505 146.906C39.5505 149.082 39.9558 150.682 40.7665 151.706C41.6198 152.73 43.0705 153.242 45.1185 153.242C47.1665 153.242 49.1932 152.709 51.1985 151.642C53.2038 150.576 55.0385 148.784 56.7025 146.266H58.7505C57.8972 147.845 56.8732 149.36 55.6785 150.81C54.4838 152.218 53.1612 153.477 51.7105 154.586C50.2598 155.653 48.7025 156.506 47.0385 157.146C45.4172 157.786 43.7532 158.106 42.0465 158.106C40.8092 158.106 39.6145 157.914 38.4625 157.53C37.3532 157.146 36.3505 156.549 35.4545 155.738C34.6012 154.928 33.8972 153.882 33.3425 152.602C32.8305 151.28 32.5745 149.701 32.5745 147.866C32.5745 146.672 32.7025 145.285 32.9585 143.706C33.2145 142.128 33.5985 140.506 34.1105 138.842C34.6652 137.178 35.3692 135.536 36.2225 133.914C37.1185 132.293 38.1638 130.864 39.3585 129.626C40.5532 128.346 41.9185 127.322 43.4545 126.554C45.0332 125.786 46.8038 125.402 48.7665 125.402C49.6625 125.402 50.5158 125.509 51.3265 125.722C52.1372 125.893 52.8625 126.234 53.5025 126.746C54.1425 127.216 54.6545 127.877 55.0385 128.73C55.4225 129.584 55.6145 130.672 55.6145 131.994ZM49.3425 128.538C48.1478 128.538 47.0385 128.965 46.0145 129.818C44.9905 130.629 44.0732 131.696 43.2625 133.018C42.4945 134.341 41.8118 135.834 41.2145 137.498C40.6598 139.12 40.2332 140.762 39.9345 142.426C43.5185 141.872 46.3772 140.613 48.5105 138.65C50.6438 136.688 51.7105 134.256 51.7105 131.354C51.7105 130.629 51.5612 129.989 51.2625 129.434C51.0065 128.837 50.3665 128.538 49.3425 128.538ZM58.889 125.722H61.001L62.921 116.89L69.577 115.994L67.465 125.722H72.393L71.945 127.962H66.953L62.793 147.482C62.7077 147.824 62.601 148.25 62.473 148.762C62.3877 149.274 62.345 149.765 62.345 150.234C62.345 151.002 62.4943 151.706 62.793 152.346C63.1343 152.944 63.7957 153.242 64.777 153.242C65.929 153.242 67.1237 152.624 68.361 151.386C69.5983 150.149 70.7503 148.442 71.817 146.266H74.185C73.0757 148.613 71.9663 150.554 70.857 152.09C69.7477 153.626 68.681 154.842 67.657 155.738C66.633 156.634 65.6303 157.253 64.649 157.594C63.7103 157.936 62.857 158.106 62.089 158.106C60.8943 158.106 59.913 157.914 59.145 157.53C58.377 157.104 57.7583 156.57 57.289 155.93C56.8623 155.248 56.5423 154.48 56.329 153.626C56.1583 152.73 56.073 151.834 56.073 150.938C56.073 150.128 56.137 149.317 56.265 148.506C56.393 147.653 56.521 146.906 56.649 146.266L60.553 127.962H58.441L58.889 125.722ZM96.414 146.266C94.9633 147.845 93.5127 149.168 92.062 150.234C90.654 151.301 89.2887 152.24 87.966 153.05C87.454 153.989 86.8353 154.778 86.11 155.418C85.4273 156.058 84.6807 156.592 83.87 157.018C83.102 157.402 82.2913 157.68 81.438 157.85C80.6273 158.021 79.8593 158.106 79.134 158.106C77.5127 158.106 76.1047 157.872 74.91 157.402C73.758 156.89 72.798 156.25 72.03 155.482C71.262 154.714 70.7073 153.84 70.366 152.858C69.982 151.877 69.79 150.896 69.79 149.914C69.79 148.421 70.1313 147.162 70.814 146.138C71.5393 145.114 72.3287 144.389 73.182 143.962C74.974 140.762 76.4887 137.605 77.726 134.49C78.9633 131.333 80.0727 128.176 81.054 125.018L87.774 123.738C87.9873 127.834 88.1793 131.162 88.35 133.722C88.5633 136.282 88.734 138.373 88.862 139.994C89.0327 141.616 89.1607 142.938 89.246 143.962C89.3313 144.944 89.374 145.968 89.374 147.034C89.374 147.418 89.3527 147.802 89.31 148.186C89.31 148.528 89.2887 148.869 89.246 149.21C90.0567 148.741 90.846 148.25 91.614 147.738C92.382 147.226 93.086 146.736 93.726 146.266H96.414ZM82.654 147.098C82.654 146.202 82.6113 145.37 82.526 144.602C82.4833 143.834 82.398 142.874 82.27 141.722C82.142 140.57 81.9927 139.12 81.822 137.37C81.6513 135.621 81.4807 133.36 81.31 130.586C80.7127 132.976 79.9873 135.258 79.134 137.434C78.3233 139.61 77.342 141.85 76.19 144.154C76.446 144.368 76.6593 144.645 76.83 144.986C77.0007 145.328 77.086 145.754 77.086 146.266C77.086 147.29 76.7873 148.08 76.19 148.634C75.6353 149.189 75.0593 149.466 74.462 149.466C73.7793 149.466 73.2673 149.168 72.926 148.57C72.926 150.064 73.2673 151.237 73.95 152.09C74.6327 152.901 75.678 153.306 77.086 153.306C78.7073 153.306 80.03 152.837 81.054 151.898C82.1207 150.96 82.654 149.36 82.654 147.098ZM95.889 125.722H98.001L99.921 116.89L106.577 115.994L104.465 125.722H109.393L108.945 127.962H103.953L99.793 147.482C99.7077 147.824 99.601 148.25 99.473 148.762C99.3877 149.274 99.345 149.765 99.345 150.234C99.345 151.002 99.4943 151.706 99.793 152.346C100.134 152.944 100.796 153.242 101.777 153.242C102.929 153.242 104.124 152.624 105.361 151.386C106.598 150.149 107.75 148.442 108.817 146.266H111.185C110.076 148.613 108.966 150.554 107.857 152.09C106.748 153.626 105.681 154.842 104.657 155.738C103.633 156.634 102.63 157.253 101.649 157.594C100.71 157.936 99.857 158.106 99.089 158.106C97.8943 158.106 96.913 157.914 96.145 157.53C95.377 157.104 94.7583 156.57 94.289 155.93C93.8623 155.248 93.5423 154.48 93.329 153.626C93.1583 152.73 93.073 151.834 93.073 150.938C93.073 150.128 93.137 149.317 93.265 148.506C93.393 147.653 93.521 146.906 93.649 146.266L97.553 127.962H95.441L95.889 125.722ZM136.806 125.722L132.134 147.482C131.921 148.336 131.814 149.296 131.814 150.362C131.814 151.088 131.942 151.749 132.198 152.346C132.454 152.944 132.987 153.242 133.798 153.242C134.822 153.242 135.846 152.624 136.87 151.386C137.937 150.149 138.939 148.442 139.878 146.266H142.246C141.222 148.954 140.198 151.088 139.174 152.666C138.15 154.202 137.147 155.376 136.166 156.186C135.227 156.997 134.31 157.509 133.414 157.722C132.561 157.978 131.793 158.106 131.11 158.106C129.702 158.106 128.529 157.616 127.59 156.634C126.694 155.653 126.161 154.053 125.99 151.834C125.009 153.584 123.643 155.077 121.894 156.314C120.187 157.509 118.31 158.106 116.262 158.106C115.238 158.106 114.235 157.936 113.254 157.594C112.273 157.21 111.398 156.613 110.63 155.802C109.862 154.949 109.243 153.882 108.774 152.602C108.305 151.28 108.07 149.68 108.07 147.802C108.07 146.352 108.219 144.794 108.518 143.13C108.859 141.466 109.329 139.802 109.926 138.138C110.523 136.474 111.291 134.874 112.23 133.338C113.169 131.802 114.235 130.458 115.43 129.306C116.625 128.112 117.969 127.173 119.462 126.49C120.998 125.765 122.662 125.402 124.454 125.402C125.478 125.402 126.523 125.637 127.59 126.106C128.657 126.576 129.361 127.472 129.702 128.794L130.342 125.722H136.806ZM118.95 153.242C119.633 153.242 120.337 153.072 121.062 152.73C121.787 152.346 122.47 151.856 123.11 151.258C123.793 150.618 124.39 149.872 124.902 149.018C125.414 148.165 125.777 147.248 125.99 146.266L129.062 131.738C128.934 131.013 128.614 130.373 128.102 129.818C127.59 129.221 126.843 128.922 125.862 128.922C124.113 128.922 122.555 129.562 121.19 130.842C119.825 132.122 118.673 133.68 117.734 135.514C116.795 137.349 116.091 139.312 115.622 141.402C115.153 143.493 114.918 145.328 114.918 146.906C114.918 149.338 115.281 151.002 116.006 151.898C116.731 152.794 117.713 153.242 118.95 153.242ZM167.805 125.722L161.277 156.442C162.429 156.058 163.474 155.632 164.413 155.162C165.394 154.65 166.269 154.01 167.037 153.242C167.805 152.432 168.509 151.472 169.149 150.362C169.789 149.253 170.386 147.888 170.941 146.266H173.309C172.541 148.528 171.73 150.384 170.877 151.834C170.066 153.242 169.149 154.416 168.125 155.354C167.101 156.25 165.97 156.954 164.733 157.466C163.538 157.978 162.215 158.405 160.765 158.746L159.933 162.842C159.463 165.146 158.93 167.002 158.333 168.41C157.778 169.818 157.138 170.906 156.413 171.674C155.73 172.485 154.962 173.018 154.109 173.274C153.255 173.573 152.295 173.722 151.229 173.722C149.266 173.722 147.602 173.274 146.237 172.378C144.871 171.525 144.189 170.053 144.189 167.962C144.189 166.896 144.487 165.893 145.085 164.954C145.725 164.058 146.535 163.205 147.517 162.394C148.498 161.584 149.586 160.858 150.781 160.218C152.018 159.578 153.234 159.024 154.429 158.554L155.645 152.666C154.535 153.861 153.255 154.842 151.805 155.61C150.397 156.336 148.903 156.698 147.325 156.698C146.301 156.698 145.298 156.528 144.317 156.186C143.335 155.802 142.461 155.205 141.693 154.394C140.925 153.541 140.306 152.474 139.837 151.194C139.367 149.872 139.133 148.272 139.133 146.394C139.133 144.389 139.474 142.17 140.157 139.738C140.882 137.306 141.927 135.024 143.293 132.89C144.658 130.757 146.365 128.986 148.413 127.578C150.461 126.128 152.829 125.402 155.517 125.402C156.541 125.402 157.586 125.637 158.653 126.106C159.719 126.576 160.423 127.472 160.765 128.794L161.405 125.722H167.805ZM150.013 151.834C150.61 151.834 151.271 151.685 151.997 151.386C152.722 151.045 153.405 150.618 154.045 150.106C154.727 149.552 155.346 148.912 155.901 148.186C156.455 147.418 156.861 146.586 157.117 145.69L160.125 131.674C159.997 130.992 159.677 130.373 159.165 129.818C158.653 129.221 157.906 128.922 156.925 128.922C155.175 128.922 153.618 129.52 152.253 130.714C150.887 131.866 149.735 133.296 148.797 135.002C147.858 136.666 147.154 138.458 146.685 140.378C146.215 142.298 145.981 144.005 145.981 145.498C145.981 147.93 146.343 149.594 147.069 150.49C147.794 151.386 148.775 151.834 150.013 151.834ZM149.053 170.394C150.247 170.394 151.165 169.712 151.805 168.346C152.445 166.981 152.999 165.189 153.469 162.97L153.917 160.922C151.527 161.946 149.714 163.077 148.477 164.314C147.282 165.552 146.685 166.746 146.685 167.898C146.685 168.624 146.877 169.221 147.26 169.69C147.687 170.16 148.285 170.394 149.053 170.394ZM181.715 125.722L180.563 130.97C181.16 130.288 181.779 129.626 182.419 128.986C183.059 128.304 183.72 127.706 184.403 127.194C185.128 126.64 185.875 126.213 186.643 125.914C187.411 125.573 188.243 125.402 189.139 125.402C190.419 125.402 191.336 125.701 191.891 126.298C192.446 126.853 192.723 127.557 192.723 128.41C192.723 129.221 192.574 129.904 192.275 130.458C192.019 130.97 191.699 131.397 191.315 131.738C190.931 132.037 190.526 132.25 190.099 132.378C189.672 132.506 189.31 132.57 189.011 132.57C188.627 132.57 188.328 132.485 188.115 132.314C187.944 132.144 187.752 131.973 187.539 131.802C187.368 131.589 187.155 131.397 186.899 131.226C186.643 131.056 186.28 130.97 185.811 130.97C184.872 130.97 183.87 131.312 182.803 131.994C181.779 132.634 180.819 133.338 179.923 134.106L174.867 157.722H168.467L175.251 125.722H181.715ZM220.431 125.722L215.759 147.482C215.546 148.336 215.439 149.296 215.439 150.362C215.439 151.088 215.567 151.749 215.823 152.346C216.079 152.944 216.612 153.242 217.423 153.242C218.447 153.242 219.471 152.624 220.495 151.386C221.562 150.149 222.564 148.442 223.503 146.266H225.871C224.847 148.954 223.823 151.088 222.799 152.666C221.775 154.202 220.772 155.376 219.791 156.186C218.852 156.997 217.935 157.509 217.039 157.722C216.186 157.978 215.418 158.106 214.735 158.106C213.327 158.106 212.154 157.616 211.215 156.634C210.319 155.653 209.786 154.053 209.615 151.834C208.634 153.584 207.268 155.077 205.519 156.314C203.812 157.509 201.935 158.106 199.887 158.106C198.863 158.106 197.86 157.936 196.879 157.594C195.898 157.21 195.023 156.613 194.255 155.802C193.487 154.949 192.868 153.882 192.399 152.602C191.93 151.28 191.695 149.68 191.695 147.802C191.695 146.352 191.844 144.794 192.143 143.13C192.484 141.466 192.954 139.802 193.551 138.138C194.148 136.474 194.916 134.874 195.855 133.338C196.794 131.802 197.86 130.458 199.055 129.306C200.25 128.112 201.594 127.173 203.087 126.49C204.623 125.765 206.287 125.402 208.079 125.402C209.103 125.402 210.148 125.637 211.215 126.106C212.282 126.576 212.986 127.472 213.327 128.794L213.967 125.722H220.431ZM202.575 153.242C203.258 153.242 203.962 153.072 204.687 152.73C205.412 152.346 206.095 151.856 206.735 151.258C207.418 150.618 208.015 149.872 208.527 149.018C209.039 148.165 209.402 147.248 209.615 146.266L212.687 131.738C212.559 131.013 212.239 130.373 211.727 129.818C211.215 129.221 210.468 128.922 209.487 128.922C207.738 128.922 206.18 129.562 204.815 130.842C203.45 132.122 202.298 133.68 201.359 135.514C200.42 137.349 199.716 139.312 199.247 141.402C198.778 143.493 198.543 145.328 198.543 146.906C198.543 149.338 198.906 151.002 199.631 151.898C200.356 152.794 201.338 153.242 202.575 153.242ZM259.942 149.85C259.942 152.112 260.71 153.242 262.246 153.242C262.843 153.242 263.504 153.093 264.23 152.794C264.144 153.946 263.888 154.885 263.462 155.61C263.035 156.293 262.523 156.826 261.926 157.21C261.371 157.552 260.795 157.786 260.198 157.914C259.6 158.042 259.088 158.106 258.662 158.106C257.04 158.106 255.718 157.509 254.694 156.314C253.67 155.077 253.158 153.285 253.158 150.938C253.158 149.573 253.307 148.122 253.606 146.586C253.947 145.05 254.31 143.536 254.694 142.042C255.078 140.506 255.419 139.034 255.718 137.626C256.059 136.218 256.229 134.938 256.229 133.786C256.229 132.72 256.038 131.866 255.654 131.226C255.27 130.586 254.523 130.266 253.414 130.266C252.048 130.266 250.875 130.821 249.894 131.93C248.955 133.04 247.974 134.768 246.95 137.114L242.534 157.722H236.07L240.614 136.346C240.742 135.749 240.827 135.216 240.87 134.746C240.912 134.277 240.934 133.85 240.934 133.466C240.934 132.272 240.699 131.44 240.23 130.97C239.76 130.501 239.12 130.266 238.31 130.266C236.944 130.266 235.771 130.842 234.79 131.994C233.851 133.104 232.87 134.81 231.845 137.114L227.43 157.722H221.029L227.814 125.722H234.278L233.382 129.818C234.875 127.898 236.304 126.682 237.67 126.17C239.035 125.658 240.251 125.402 241.318 125.402C243.494 125.402 245.051 125.936 245.99 127.002C246.971 128.026 247.568 129.285 247.782 130.778C248.592 129.584 249.382 128.645 250.15 127.962C250.918 127.237 251.664 126.682 252.39 126.298C253.158 125.914 253.862 125.68 254.502 125.594C255.184 125.466 255.824 125.402 256.422 125.402C257.702 125.402 258.768 125.594 259.622 125.978C260.475 126.362 261.158 126.896 261.67 127.578C262.182 128.218 262.523 128.986 262.694 129.882C262.907 130.736 263.014 131.632 263.014 132.57C263.014 133.978 262.843 135.472 262.502 137.05C262.203 138.586 261.862 140.101 261.478 141.594C261.094 143.088 260.731 144.56 260.39 146.01C260.091 147.418 259.942 148.698 259.942 149.85Z" fill="url(#paint0_linear)"/>
<path d="M101.554 42.8486C104.804 38.7818 109.103 35.3572 113.506 33.1097C137.935 20.6954 163.516 37.4976 166.032 64.1456C166.661 70.9949 165.823 78.4863 162.572 85.2286C159.322 91.9708 153.661 97.7499 147.265 99.4622C140.87 101.282 134.16 98.392 132.063 92.1849C131.225 89.6164 130.805 86.4058 130.91 83.7302C131.12 80.8407 131.329 77.8442 129.547 75.3827C128.813 74.3125 127.765 73.4563 126.612 72.8142C123.047 70.7808 119.063 70.7808 115.708 72.9212C112.877 74.6336 109.732 76.7739 106.167 76.2388C103.756 75.9178 101.764 74.5265 100.086 72.8142C91.4894 63.6105 94.3202 51.7312 101.554 42.8486Z" fill="url(#paint1_linear)"/>
<path d="M147.057 0.254811C136.363 -1.88559 126.718 9.88662 133.742 19.5184C136.678 23.5852 142.234 25.5116 146.952 24.2273C151.775 22.8361 155.444 18.2342 155.864 13.2043C156.283 7.63921 152.614 1.43203 147.057 0.254811Z" fill="url(#paint2_linear)"/>
<path d="M174.628 17.6985C163.934 15.5581 154.289 27.3303 161.313 36.9622C164.249 41.0289 169.805 42.9553 174.523 41.671C179.346 40.2798 183.016 35.6779 183.435 30.648C183.854 25.0829 180.08 18.7687 174.628 17.6985Z" fill="url(#paint3_linear)"/>
<path d="M186.371 50.2334C178.088 47.3438 170.015 55.7984 172.322 64.3601C173.999 70.6742 181.548 74.634 187.524 72.3866C198.323 68.2128 196.331 53.7651 186.371 50.2334Z" fill="url(#paint4_linear)"/>
<path d="M114.137 4.74999C105.854 1.86044 97.7811 10.315 100.088 18.8767C101.765 25.1908 109.314 29.1506 115.29 26.9032C125.984 22.7294 124.097 8.28165 114.137 4.74999Z" fill="url(#paint5_linear)"/>
<defs>
<linearGradient id="paint0_linear" x1="-8.34513" y1="95.7222" x2="297.401" y2="102.685" gradientUnits="userSpaceOnUse">
<stop stop-color="#BF863F"/>
<stop offset="0.65625" stop-color="#F2A71B"/>
<stop offset="1" stop-color="#F2C335"/>
</linearGradient>
<linearGradient id="paint1_linear" x1="91.1954" y1="28.9448" x2="173.278" y2="29.4782" gradientUnits="userSpaceOnUse">
<stop stop-color="#BF863F"/>
<stop offset="0.65625" stop-color="#F2A71B"/>
<stop offset="1" stop-color="#F2C335"/>
</linearGradient>
<linearGradient id="paint2_linear" x1="130.118" y1="2.6667e-06" x2="158.319" y2="0.181683" gradientUnits="userSpaceOnUse">
<stop stop-color="#BF863F"/>
<stop offset="0.65625" stop-color="#F2A71B"/>
<stop offset="1" stop-color="#F2C335"/>
</linearGradient>
<linearGradient id="paint3_linear" x1="157.69" y1="17.4437" x2="185.889" y2="17.6254" gradientUnits="userSpaceOnUse">
<stop stop-color="#BF863F"/>
<stop offset="0.65625" stop-color="#F2A71B"/>
<stop offset="1" stop-color="#F2C335"/>
</linearGradient>
<linearGradient id="paint4_linear" x1="170.777" y1="49.6556" x2="197.032" y2="49.8216" gradientUnits="userSpaceOnUse">
<stop stop-color="#BF863F"/>
<stop offset="0.65625" stop-color="#F2A71B"/>
<stop offset="1" stop-color="#F2C335"/>
</linearGradient>
<linearGradient id="paint5_linear" x1="98.5447" y1="4.17224" x2="124.752" y2="4.33757" gradientUnits="userSpaceOnUse">
<stop stop-color="#BF863F"/>
<stop offset="0.65625" stop-color="#F2A71B"/>
<stop offset="1" stop-color="#F2C335"/>
</linearGradient>
</defs>
</svg>
