<svg width="326" height="176" viewBox="0 0 326 176" fill="none" xmlns="http://www.w3.org/2000/svg">
<path d="M30.5756 123.354L29.4876 128.282C30.469 127.429 31.557 126.746 32.7516 126.234C33.989 125.68 35.3116 125.402 36.7196 125.402C37.829 125.402 38.853 125.594 39.7916 125.978C40.7303 126.362 41.541 126.981 42.2236 127.834C42.9063 128.688 43.4396 129.797 43.8236 131.162C44.2076 132.485 44.3996 134.128 44.3996 136.09C44.3996 137.455 44.293 138.949 44.0796 140.57C43.8663 142.192 43.525 143.834 43.0556 145.498C42.5863 147.12 41.9463 148.698 41.1356 150.234C40.3676 151.728 39.4076 153.072 38.2556 154.266C37.1036 155.418 35.7596 156.357 34.2236 157.082C32.6876 157.765 30.9383 158.106 28.9756 158.106C27.8236 158.106 26.821 157.829 25.9676 157.274C25.157 156.677 24.453 155.909 23.8556 154.97L20.2076 172.122L13.4236 173.722L24.1116 123.354H30.5756ZM33.6476 129.562C32.6663 129.562 31.749 129.839 30.8956 130.394C30.085 130.949 29.317 131.717 28.5916 132.698L24.4956 151.77C24.965 152.581 25.5196 153.157 26.1596 153.498C26.8423 153.84 27.4396 154.01 27.9516 154.01C29.8716 154.01 31.4716 153.37 32.7516 152.09C34.0316 150.768 35.0556 149.189 35.8236 147.354C36.6343 145.477 37.2103 143.536 37.5516 141.53C37.893 139.482 38.0636 137.711 38.0636 136.218C38.0636 134.938 37.9356 133.872 37.6796 133.018C37.4236 132.165 37.0823 131.482 36.6556 130.97C36.229 130.458 35.7596 130.096 35.2476 129.882C34.7356 129.669 34.2023 129.562 33.6476 129.562ZM68.8381 131.994C68.8381 135.621 67.4088 138.565 64.5501 140.826C61.7341 143.045 57.8301 144.41 52.8381 144.922C52.7955 145.264 52.7741 145.605 52.7741 145.946C52.7741 146.245 52.7741 146.565 52.7741 146.906C52.7741 149.082 53.1795 150.682 53.9901 151.706C54.8435 152.73 56.2941 153.242 58.3421 153.242C60.3901 153.242 62.4168 152.709 64.4221 151.642C66.4275 150.576 68.2621 148.784 69.9261 146.266H71.9741C71.1208 147.845 70.0968 149.36 68.9021 150.81C67.7075 152.218 66.3848 153.477 64.9341 154.586C63.4835 155.653 61.9261 156.506 60.2621 157.146C58.6408 157.786 56.9768 158.106 55.2701 158.106C54.0328 158.106 52.8381 157.914 51.6861 157.53C50.5768 157.146 49.5741 156.549 48.6781 155.738C47.8248 154.928 47.1208 153.882 46.5661 152.602C46.0541 151.28 45.7981 149.701 45.7981 147.866C45.7981 146.672 45.9261 145.285 46.1821 143.706C46.4381 142.128 46.8221 140.506 47.3341 138.842C47.8888 137.178 48.5928 135.536 49.4461 133.914C50.3421 132.293 51.3875 130.863 52.5821 129.626C53.7768 128.346 55.1421 127.322 56.6781 126.554C58.2568 125.786 60.0275 125.402 61.9901 125.402C62.8861 125.402 63.7395 125.509 64.5501 125.722C65.3608 125.893 66.0861 126.234 66.7261 126.746C67.3661 127.215 67.8781 127.877 68.2621 128.73C68.6461 129.583 68.8381 130.671 68.8381 131.994ZM62.5661 128.538C61.3715 128.538 60.2621 128.965 59.2381 129.818C58.2141 130.629 57.2968 131.696 56.4861 133.018C55.7181 134.341 55.0355 135.834 54.4381 137.498C53.8835 139.119 53.4568 140.762 53.1581 142.426C56.7421 141.872 59.6008 140.613 61.7341 138.65C63.8675 136.688 64.9341 134.256 64.9341 131.354C64.9341 130.629 64.7848 129.989 64.4861 129.434C64.2301 128.837 63.5901 128.538 62.5661 128.538ZM72.1126 125.722H74.2246L76.1446 116.89L82.8006 115.994L80.6886 125.722H85.6166L85.1686 127.962H80.1766L76.0166 147.482C75.9313 147.824 75.8246 148.25 75.6966 148.762C75.6113 149.274 75.5686 149.765 75.5686 150.234C75.5686 151.002 75.718 151.706 76.0166 152.346C76.358 152.944 77.0193 153.242 78.0006 153.242C79.1526 153.242 80.3473 152.624 81.5846 151.386C82.822 150.149 83.974 148.442 85.0406 146.266H87.4086C86.2993 148.613 85.19 150.554 84.0806 152.09C82.9713 153.626 81.9046 154.842 80.8806 155.738C79.8566 156.634 78.854 157.253 77.8726 157.594C76.934 157.936 76.0806 158.106 75.3126 158.106C74.118 158.106 73.1366 157.914 72.3686 157.53C71.6006 157.104 70.982 156.57 70.5126 155.93C70.086 155.248 69.766 154.48 69.5526 153.626C69.382 152.73 69.2966 151.834 69.2966 150.938C69.2966 150.128 69.3606 149.317 69.4886 148.506C69.6166 147.653 69.7446 146.906 69.8726 146.266L73.7766 127.962H71.6646L72.1126 125.722ZM109.638 146.266C108.187 147.845 106.736 149.168 105.286 150.234C103.878 151.301 102.512 152.24 101.19 153.05C100.678 153.989 100.059 154.778 99.3336 155.418C98.651 156.058 97.9043 156.592 97.0936 157.018C96.3256 157.402 95.515 157.68 94.6616 157.85C93.851 158.021 93.083 158.106 92.3576 158.106C90.7363 158.106 89.3283 157.872 88.1336 157.402C86.9816 156.89 86.0216 156.25 85.2536 155.482C84.4856 154.714 83.931 153.84 83.5896 152.858C83.2056 151.877 83.0136 150.896 83.0136 149.914C83.0136 148.421 83.355 147.162 84.0376 146.138C84.763 145.114 85.5523 144.389 86.4056 143.962C88.1976 140.762 89.7123 137.605 90.9496 134.49C92.187 131.333 93.2963 128.176 94.2776 125.018L100.998 123.738C101.211 127.834 101.403 131.162 101.574 133.722C101.787 136.282 101.958 138.373 102.086 139.994C102.256 141.616 102.384 142.938 102.47 143.962C102.555 144.944 102.598 145.968 102.598 147.034C102.598 147.418 102.576 147.802 102.534 148.186C102.534 148.528 102.512 148.869 102.47 149.21C103.28 148.741 104.07 148.25 104.838 147.738C105.606 147.226 106.31 146.736 106.95 146.266H109.638ZM95.8776 147.098C95.8776 146.202 95.835 145.37 95.7496 144.602C95.707 143.834 95.6216 142.874 95.4936 141.722C95.3656 140.57 95.2163 139.12 95.0456 137.37C94.875 135.621 94.7043 133.359 94.5336 130.586C93.9363 132.975 93.211 135.258 92.3576 137.434C91.547 139.61 90.5656 141.85 89.4136 144.154C89.6696 144.368 89.883 144.645 90.0536 144.986C90.2243 145.328 90.3096 145.754 90.3096 146.266C90.3096 147.29 90.011 148.08 89.4136 148.634C88.859 149.189 88.283 149.466 87.6856 149.466C87.003 149.466 86.491 149.168 86.1496 148.57C86.1496 150.064 86.491 151.237 87.1736 152.09C87.8563 152.901 88.9016 153.306 90.3096 153.306C91.931 153.306 93.2536 152.837 94.2776 151.898C95.3443 150.96 95.8776 149.36 95.8776 147.098ZM109.113 125.722H111.225L113.145 116.89L119.801 115.994L117.689 125.722H122.617L122.169 127.962H117.177L113.017 147.482C112.931 147.824 112.825 148.25 112.697 148.762C112.611 149.274 112.569 149.765 112.569 150.234C112.569 151.002 112.718 151.706 113.017 152.346C113.358 152.944 114.019 153.242 115.001 153.242C116.153 153.242 117.347 152.624 118.585 151.386C119.822 150.149 120.974 148.442 122.041 146.266H124.409C123.299 148.613 122.19 150.554 121.081 152.09C119.971 153.626 118.905 154.842 117.881 155.738C116.857 156.634 115.854 157.253 114.873 157.594C113.934 157.936 113.081 158.106 112.313 158.106C111.118 158.106 110.137 157.914 109.369 157.53C108.601 157.104 107.982 156.57 107.513 155.93C107.086 155.248 106.766 154.48 106.553 153.626C106.382 152.73 106.297 151.834 106.297 150.938C106.297 150.128 106.361 149.317 106.489 148.506C106.617 147.653 106.745 146.906 106.873 146.266L110.777 127.962H108.665L109.113 125.722ZM150.03 125.722L145.358 147.482C145.144 148.336 145.038 149.296 145.038 150.362C145.038 151.088 145.166 151.749 145.422 152.346C145.678 152.944 146.211 153.242 147.022 153.242C148.046 153.242 149.07 152.624 150.094 151.386C151.16 150.149 152.163 148.442 153.102 146.266H155.47C154.446 148.954 153.422 151.088 152.398 152.666C151.374 154.202 150.371 155.376 149.39 156.186C148.451 156.997 147.534 157.509 146.638 157.722C145.784 157.978 145.016 158.106 144.334 158.106C142.926 158.106 141.752 157.616 140.814 156.634C139.918 155.653 139.384 154.053 139.214 151.834C138.232 153.584 136.867 155.077 135.118 156.314C133.411 157.509 131.534 158.106 129.486 158.106C128.462 158.106 127.459 157.936 126.478 157.594C125.496 157.21 124.622 156.613 123.854 155.802C123.086 154.949 122.467 153.882 121.998 152.602C121.528 151.28 121.294 149.68 121.294 147.802C121.294 146.352 121.443 144.794 121.742 143.13C122.083 141.466 122.552 139.802 123.15 138.138C123.747 136.474 124.515 134.874 125.454 133.338C126.392 131.802 127.459 130.458 128.654 129.306C129.848 128.111 131.192 127.173 132.686 126.49C134.222 125.765 135.886 125.402 137.678 125.402C138.702 125.402 139.747 125.637 140.814 126.106C141.88 126.576 142.584 127.472 142.926 128.794L143.566 125.722H150.03ZM132.174 153.242C132.856 153.242 133.56 153.072 134.286 152.73C135.011 152.346 135.694 151.856 136.334 151.258C137.016 150.618 137.614 149.872 138.126 149.018C138.638 148.165 139 147.248 139.214 146.266L142.286 131.738C142.158 131.013 141.838 130.373 141.326 129.818C140.814 129.221 140.067 128.922 139.086 128.922C137.336 128.922 135.779 129.562 134.414 130.842C133.048 132.122 131.896 133.68 130.958 135.514C130.019 137.349 129.315 139.311 128.846 141.402C128.376 143.493 128.142 145.328 128.142 146.906C128.142 149.338 128.504 151.002 129.23 151.898C129.955 152.794 130.936 153.242 132.174 153.242ZM181.028 125.722L174.5 156.442C175.652 156.058 176.697 155.632 177.636 155.162C178.617 154.65 179.492 154.01 180.26 153.242C181.028 152.432 181.732 151.472 182.372 150.362C183.012 149.253 183.609 147.888 184.164 146.266H186.532C185.764 148.528 184.953 150.384 184.1 151.834C183.289 153.242 182.372 154.416 181.348 155.354C180.324 156.25 179.193 156.954 177.956 157.466C176.761 157.978 175.439 158.405 173.988 158.746L173.156 162.842C172.687 165.146 172.153 167.002 171.556 168.41C171.001 169.818 170.361 170.906 169.636 171.674C168.953 172.485 168.185 173.018 167.332 173.274C166.479 173.573 165.519 173.722 164.452 173.722C162.489 173.722 160.825 173.274 159.46 172.378C158.095 171.525 157.412 170.053 157.412 167.962C157.412 166.896 157.711 165.893 158.308 164.954C158.948 164.058 159.759 163.205 160.74 162.394C161.721 161.584 162.809 160.858 164.004 160.218C165.241 159.578 166.457 159.024 167.652 158.554L168.868 152.666C167.759 153.861 166.479 154.842 165.028 155.61C163.62 156.336 162.127 156.698 160.548 156.698C159.524 156.698 158.521 156.528 157.54 156.186C156.559 155.802 155.684 155.205 154.916 154.394C154.148 153.541 153.529 152.474 153.06 151.194C152.591 149.872 152.356 148.272 152.356 146.394C152.356 144.389 152.697 142.17 153.38 139.738C154.105 137.306 155.151 135.023 156.516 132.89C157.881 130.757 159.588 128.986 161.636 127.578C163.684 126.128 166.052 125.402 168.74 125.402C169.764 125.402 170.809 125.637 171.876 126.106C172.943 126.576 173.647 127.472 173.988 128.794L174.628 125.722H181.028ZM163.236 151.834C163.833 151.834 164.495 151.685 165.22 151.386C165.945 151.045 166.628 150.618 167.268 150.106C167.951 149.552 168.569 148.912 169.124 148.186C169.679 147.418 170.084 146.586 170.34 145.69L173.348 131.674C173.22 130.992 172.9 130.373 172.388 129.818C171.876 129.221 171.129 128.922 170.148 128.922C168.399 128.922 166.841 129.52 165.476 130.714C164.111 131.866 162.959 133.296 162.02 135.002C161.081 136.666 160.377 138.458 159.908 140.378C159.439 142.298 159.204 144.005 159.204 145.498C159.204 147.93 159.567 149.594 160.292 150.49C161.017 151.386 161.999 151.834 163.236 151.834ZM162.276 170.394C163.471 170.394 164.388 169.712 165.028 168.346C165.668 166.981 166.223 165.189 166.692 162.97L167.14 160.922C164.751 161.946 162.937 163.077 161.7 164.314C160.505 165.552 159.908 166.746 159.908 167.898C159.908 168.624 160.1 169.221 160.484 169.69C160.911 170.16 161.508 170.394 162.276 170.394ZM194.939 125.722L193.787 130.97C194.384 130.288 195.003 129.626 195.643 128.986C196.283 128.303 196.944 127.706 197.627 127.194C198.352 126.64 199.099 126.213 199.867 125.914C200.635 125.573 201.467 125.402 202.363 125.402C203.643 125.402 204.56 125.701 205.115 126.298C205.669 126.853 205.947 127.557 205.947 128.41C205.947 129.221 205.797 129.904 205.499 130.458C205.243 130.97 204.923 131.397 204.539 131.738C204.155 132.037 203.749 132.25 203.323 132.378C202.896 132.506 202.533 132.57 202.235 132.57C201.851 132.57 201.552 132.485 201.339 132.314C201.168 132.144 200.976 131.973 200.763 131.802C200.592 131.589 200.379 131.397 200.123 131.226C199.867 131.056 199.504 130.97 199.035 130.97C198.096 130.97 197.093 131.312 196.027 131.994C195.003 132.634 194.043 133.338 193.147 134.106L188.091 157.722H181.691L188.475 125.722H194.939ZM233.655 125.722L228.983 147.482C228.769 148.336 228.663 149.296 228.663 150.362C228.663 151.088 228.791 151.749 229.047 152.346C229.303 152.944 229.836 153.242 230.647 153.242C231.671 153.242 232.695 152.624 233.719 151.386C234.785 150.149 235.788 148.442 236.727 146.266H239.095C238.071 148.954 237.047 151.088 236.023 152.666C234.999 154.202 233.996 155.376 233.015 156.186C232.076 156.997 231.159 157.509 230.263 157.722C229.409 157.978 228.641 158.106 227.959 158.106C226.551 158.106 225.377 157.616 224.439 156.634C223.543 155.653 223.009 154.053 222.839 151.834C221.857 153.584 220.492 155.077 218.743 156.314C217.036 157.509 215.159 158.106 213.111 158.106C212.087 158.106 211.084 157.936 210.103 157.594C209.121 157.21 208.247 156.613 207.479 155.802C206.711 154.949 206.092 153.882 205.623 152.602C205.153 151.28 204.919 149.68 204.919 147.802C204.919 146.352 205.068 144.794 205.367 143.13C205.708 141.466 206.177 139.802 206.775 138.138C207.372 136.474 208.14 134.874 209.079 133.338C210.017 131.802 211.084 130.458 212.279 129.306C213.473 128.111 214.817 127.173 216.311 126.49C217.847 125.765 219.511 125.402 221.303 125.402C222.327 125.402 223.372 125.637 224.439 126.106C225.505 126.576 226.209 127.472 226.551 128.794L227.191 125.722H233.655ZM215.799 153.242C216.481 153.242 217.185 153.072 217.911 152.73C218.636 152.346 219.319 151.856 219.959 151.258C220.641 150.618 221.239 149.872 221.751 149.018C222.263 148.165 222.625 147.248 222.839 146.266L225.911 131.738C225.783 131.013 225.463 130.373 224.951 129.818C224.439 129.221 223.692 128.922 222.711 128.922C220.961 128.922 219.404 129.562 218.039 130.842C216.673 132.122 215.521 133.68 214.583 135.514C213.644 137.349 212.94 139.311 212.471 141.402C212.001 143.493 211.767 145.328 211.767 146.906C211.767 149.338 212.129 151.002 212.855 151.898C213.58 152.794 214.561 153.242 215.799 153.242ZM273.165 149.85C273.165 152.112 273.933 153.242 275.469 153.242C276.066 153.242 276.728 153.093 277.453 152.794C277.368 153.946 277.112 154.885 276.685 155.61C276.258 156.293 275.746 156.826 275.149 157.21C274.594 157.552 274.018 157.786 273.421 157.914C272.824 158.042 272.312 158.106 271.885 158.106C270.264 158.106 268.941 157.509 267.917 156.314C266.893 155.077 266.381 153.285 266.381 150.938C266.381 149.573 266.53 148.122 266.829 146.586C267.17 145.05 267.533 143.536 267.917 142.042C268.301 140.506 268.642 139.034 268.941 137.626C269.282 136.218 269.453 134.938 269.453 133.786C269.453 132.72 269.261 131.866 268.877 131.226C268.493 130.586 267.746 130.266 266.637 130.266C265.272 130.266 264.098 130.821 263.117 131.93C262.178 133.04 261.197 134.768 260.173 137.114L255.757 157.722H249.293L253.837 136.346C253.965 135.749 254.05 135.215 254.093 134.746C254.136 134.277 254.157 133.85 254.157 133.466C254.157 132.272 253.922 131.44 253.453 130.97C252.984 130.501 252.344 130.266 251.533 130.266C250.168 130.266 248.994 130.842 248.013 131.994C247.074 133.104 246.093 134.81 245.069 137.114L240.653 157.722H234.253L241.037 125.722H247.501L246.605 129.818C248.098 127.898 249.528 126.682 250.893 126.17C252.258 125.658 253.474 125.402 254.541 125.402C256.717 125.402 258.274 125.936 259.213 127.002C260.194 128.026 260.792 129.285 261.005 130.778C261.816 129.583 262.605 128.645 263.373 127.962C264.141 127.237 264.888 126.682 265.613 126.298C266.381 125.914 267.085 125.68 267.725 125.594C268.408 125.466 269.048 125.402 269.645 125.402C270.925 125.402 271.992 125.594 272.845 125.978C273.698 126.362 274.381 126.896 274.893 127.578C275.405 128.218 275.746 128.986 275.917 129.882C276.13 130.735 276.237 131.632 276.237 132.57C276.237 133.978 276.066 135.472 275.725 137.05C275.426 138.586 275.085 140.101 274.701 141.594C274.317 143.088 273.954 144.56 273.613 146.01C273.314 147.418 273.165 148.698 273.165 149.85Z" fill="url(#paint0_linear)"/>
<path d="M114.778 42.8486C118.028 38.7818 122.327 35.3572 126.73 33.1097C151.158 20.6954 176.74 37.4976 179.256 64.1456C179.885 70.9949 179.046 78.4863 175.796 85.2286C172.546 91.9708 166.884 97.7499 160.489 99.4622C154.094 101.282 147.384 98.392 145.287 92.1849C144.448 89.6164 144.029 86.4058 144.134 83.7302C144.343 80.8407 144.553 77.8442 142.771 75.3827C142.037 74.3125 140.989 73.4563 139.835 72.8142C136.271 70.7808 132.287 70.7808 128.932 72.9212C126.101 74.6336 122.956 76.7739 119.391 76.2388C116.98 75.9178 114.988 74.5265 113.31 72.8142C104.713 63.6105 107.544 51.7312 114.778 42.8486Z" fill="url(#paint1_linear)"/>
<path d="M160.281 0.254811C149.587 -1.88559 139.941 9.88662 146.966 19.5184C149.901 23.5852 155.458 25.5116 160.176 24.2273C164.998 22.8361 168.668 18.2342 169.087 13.2043C169.507 7.63921 165.837 1.43203 160.281 0.254811Z" fill="url(#paint2_linear)"/>
<path d="M187.852 17.6985C177.158 15.5581 167.512 27.3303 174.537 36.9622C177.472 41.0289 183.029 42.9553 187.747 41.671C192.57 40.2798 196.239 35.6779 196.659 30.648C197.078 25.0829 193.304 18.7687 187.852 17.6985Z" fill="url(#paint3_linear)"/>
<path d="M199.595 50.2334C191.312 47.3438 183.239 55.7984 185.546 64.3601C187.223 70.6742 194.772 74.634 200.748 72.3866C211.547 68.2128 209.555 53.7651 199.595 50.2334Z" fill="url(#paint4_linear)"/>
<path d="M127.36 4.74999C119.078 1.86044 111.005 10.315 113.311 18.8767C114.989 25.1908 122.537 29.1506 128.513 26.9032C139.207 22.7294 137.32 8.28165 127.36 4.74999Z" fill="url(#paint5_linear)"/>
<defs>
<linearGradient id="paint0_linear" x1="4.8785" y1="95.7222" x2="310.625" y2="102.685" gradientUnits="userSpaceOnUse">
<stop stop-color="#BF863F"/>
<stop offset="0.65625" stop-color="#F2A71B"/>
<stop offset="1" stop-color="#F2C335"/>
</linearGradient>
<linearGradient id="paint1_linear" x1="104.419" y1="28.9448" x2="186.501" y2="29.4782" gradientUnits="userSpaceOnUse">
<stop stop-color="#BF863F"/>
<stop offset="0.65625" stop-color="#F2A71B"/>
<stop offset="1" stop-color="#F2C335"/>
</linearGradient>
<linearGradient id="paint2_linear" x1="143.342" y1="2.6667e-06" x2="171.543" y2="0.181683" gradientUnits="userSpaceOnUse">
<stop stop-color="#BF863F"/>
<stop offset="0.65625" stop-color="#F2A71B"/>
<stop offset="1" stop-color="#F2C335"/>
</linearGradient>
<linearGradient id="paint3_linear" x1="170.913" y1="17.4437" x2="199.113" y2="17.6254" gradientUnits="userSpaceOnUse">
<stop stop-color="#BF863F"/>
<stop offset="0.65625" stop-color="#F2A71B"/>
<stop offset="1" stop-color="#F2C335"/>
</linearGradient>
<linearGradient id="paint4_linear" x1="184.001" y1="49.6556" x2="210.256" y2="49.8216" gradientUnits="userSpaceOnUse">
<stop stop-color="#BF863F"/>
<stop offset="0.65625" stop-color="#F2A71B"/>
<stop offset="1" stop-color="#F2C335"/>
</linearGradient>
<linearGradient id="paint5_linear" x1="111.768" y1="4.17224" x2="137.975" y2="4.33757" gradientUnits="userSpaceOnUse">
<stop stop-color="#BF863F"/>
<stop offset="0.65625" stop-color="#F2A71B"/>
<stop offset="1" stop-color="#F2C335"/>
</linearGradient>
</defs>
</svg>
