<svg width="333" height="100" viewBox="0 0 333 100" fill="none" xmlns="http://www.w3.org/2000/svg">
<path d="M12.7112 47.1395C14.0112 45.5128 15.7307 44.1429 17.492 43.244C27.2634 38.2782 37.496 44.9991 38.5025 55.6583C38.7541 58.3981 38.4186 61.3946 37.1185 64.0916C35.8185 66.7885 33.5539 69.1001 30.9957 69.785C28.4376 70.5128 25.7536 69.357 24.9149 66.8741C24.5794 65.8467 24.4116 64.5624 24.4536 63.4922C24.5374 62.3364 24.6213 61.1378 23.9084 60.1532C23.6148 59.7251 23.1955 59.3827 22.7342 59.1258C21.3083 58.3125 19.7147 58.3125 18.3727 59.1686C17.2404 59.8535 15.9823 60.7097 14.5564 60.4957C13.5919 60.3672 12.795 59.8107 12.1241 59.1258C8.68521 55.4443 9.81752 50.6926 12.7112 47.1395Z" fill="#BF863F"/>
<path d="M30.9123 30.1019C26.6347 29.2458 22.7765 33.9547 25.5862 37.8074C26.7605 39.4341 28.9831 40.2047 30.8703 39.691C32.7994 39.1345 34.2672 37.2937 34.435 35.2817C34.6027 33.0557 33.1349 30.5728 30.9123 30.1019Z" fill="#BF863F"/>
<path d="M41.941 37.0793C37.6635 36.2232 33.8053 40.9321 36.6151 44.7848C37.7893 46.4115 40.0119 47.1821 41.8991 46.6684C43.8282 46.1119 45.296 44.2711 45.4638 42.2591C45.6315 40.0331 44.1218 37.5074 41.941 37.0793Z" fill="#BF863F"/>
<path d="M46.6376 50.0934C43.3246 48.9376 40.0954 52.3194 41.018 55.7441C41.689 58.2698 44.7085 59.8537 47.0989 58.9547C51.4184 57.2852 50.6216 51.5061 46.6376 50.0934Z" fill="#BF863F"/>
<path d="M17.7436 31.8999C14.4305 30.7441 11.2014 34.126 12.124 37.5506C12.795 40.0763 15.8144 41.6602 18.2049 40.7612C22.4824 39.0917 21.7276 33.3126 17.7436 31.8999Z" fill="#BF863F"/>
<path d="M72.352 39.632L71.264 44.56C72.2453 43.7067 73.3333 43.024 74.528 42.512C75.7653 41.9573 77.088 41.68 78.496 41.68C79.6053 41.68 80.6293 41.872 81.568 42.256C82.5067 42.64 83.3173 43.2587 84 44.112C84.6827 44.9653 85.216 46.0747 85.6 47.44C85.984 48.7627 86.176 50.4053 86.176 52.368C86.176 53.7333 86.0693 55.2267 85.856 56.848C85.6427 58.4693 85.3013 60.112 84.832 61.776C84.3627 63.3973 83.7227 64.976 82.912 66.512C82.144 68.0053 81.184 69.3493 80.032 70.544C78.88 71.696 77.536 72.6347 76 73.36C74.464 74.0427 72.7147 74.384 70.752 74.384C69.6 74.384 68.5973 74.1067 67.744 73.552C66.9333 72.9547 66.2293 72.1867 65.632 71.248L61.984 88.4L55.2 90L65.888 39.632H72.352ZM75.424 45.84C74.4427 45.84 73.5253 46.1173 72.672 46.672C71.8613 47.2267 71.0933 47.9947 70.368 48.976L66.272 68.048C66.7413 68.8587 67.296 69.4347 67.936 69.776C68.6187 70.1173 69.216 70.288 69.728 70.288C71.648 70.288 73.248 69.648 74.528 68.368C75.808 67.0453 76.832 65.4667 77.6 63.632C78.4107 61.7547 78.9867 59.8133 79.328 57.808C79.6693 55.76 79.84 53.9893 79.84 52.496C79.84 51.216 79.712 50.1493 79.456 49.296C79.2 48.4427 78.8587 47.76 78.432 47.248C78.0053 46.736 77.536 46.3733 77.024 46.16C76.512 45.9467 75.9787 45.84 75.424 45.84ZM110.615 48.272C110.615 51.8987 109.185 54.8427 106.327 57.104C103.511 59.3227 99.6065 60.688 94.6145 61.2C94.5718 61.5413 94.5505 61.8827 94.5505 62.224C94.5505 62.5227 94.5505 62.8427 94.5505 63.184C94.5505 65.36 94.9558 66.96 95.7665 67.984C96.6198 69.008 98.0705 69.52 100.119 69.52C102.167 69.52 104.193 68.9867 106.199 67.92C108.204 66.8533 110.039 65.0613 111.703 62.544H113.751C112.897 64.1227 111.873 65.6373 110.679 67.088C109.484 68.496 108.161 69.7547 106.711 70.864C105.26 71.9307 103.703 72.784 102.039 73.424C100.417 74.064 98.7532 74.384 97.0465 74.384C95.8092 74.384 94.6145 74.192 93.4625 73.808C92.3532 73.424 91.3505 72.8267 90.4545 72.016C89.6012 71.2053 88.8972 70.16 88.3425 68.88C87.8305 67.5573 87.5745 65.9787 87.5745 64.144C87.5745 62.9493 87.7025 61.5627 87.9585 59.984C88.2145 58.4053 88.5985 56.784 89.1105 55.12C89.6652 53.456 90.3692 51.8133 91.2225 50.192C92.1185 48.5707 93.1638 47.1413 94.3585 45.904C95.5532 44.624 96.9185 43.6 98.4545 42.832C100.033 42.064 101.804 41.68 103.767 41.68C104.663 41.68 105.516 41.7867 106.327 42C107.137 42.1707 107.863 42.512 108.503 43.024C109.143 43.4933 109.655 44.1547 110.039 45.008C110.423 45.8613 110.615 46.9493 110.615 48.272ZM104.343 44.816C103.148 44.816 102.039 45.2427 101.015 46.096C99.9905 46.9067 99.0732 47.9733 98.2625 49.296C97.4945 50.6187 96.8118 52.112 96.2145 53.776C95.6598 55.3973 95.2332 57.04 94.9345 58.704C98.5185 58.1493 101.377 56.8907 103.51 54.928C105.644 52.9653 106.711 50.5333 106.711 47.632C106.711 46.9067 106.561 46.2667 106.263 45.712C106.007 45.1147 105.367 44.816 104.343 44.816ZM113.889 42H116.001L117.921 33.168L124.577 32.272L122.465 42H127.393L126.945 44.24H121.953L117.793 63.76C117.708 64.1013 117.601 64.528 117.473 65.04C117.388 65.552 117.345 66.0427 117.345 66.512C117.345 67.28 117.494 67.984 117.793 68.624C118.134 69.2213 118.796 69.52 119.777 69.52C120.929 69.52 122.124 68.9013 123.361 67.664C124.598 66.4267 125.75 64.72 126.817 62.544H129.185C128.076 64.8907 126.966 66.832 125.857 68.368C124.748 69.904 123.681 71.12 122.657 72.016C121.633 72.912 120.63 73.5307 119.649 73.872C118.71 74.2133 117.857 74.384 117.089 74.384C115.894 74.384 114.913 74.192 114.145 73.808C113.377 73.3813 112.758 72.848 112.289 72.208C111.862 71.5253 111.542 70.7573 111.329 69.904C111.158 69.008 111.073 68.112 111.073 67.216C111.073 66.4053 111.137 65.5947 111.265 64.784C111.393 63.9307 111.521 63.184 111.649 62.544L115.553 44.24H113.441L113.889 42ZM151.414 62.544C149.963 64.1227 148.513 65.4453 147.062 66.512C145.654 67.5787 144.289 68.5173 142.966 69.328C142.454 70.2667 141.835 71.056 141.11 71.696C140.427 72.336 139.681 72.8693 138.87 73.296C138.102 73.68 137.291 73.9573 136.438 74.128C135.627 74.2987 134.859 74.384 134.134 74.384C132.513 74.384 131.105 74.1493 129.91 73.68C128.758 73.168 127.798 72.528 127.03 71.76C126.262 70.992 125.707 70.1173 125.366 69.136C124.982 68.1547 124.79 67.1733 124.79 66.192C124.79 64.6987 125.131 63.44 125.814 62.416C126.539 61.392 127.329 60.6667 128.182 60.24C129.974 57.04 131.489 53.8827 132.726 50.768C133.963 47.6107 135.073 44.4533 136.054 41.296L142.774 40.016C142.987 44.112 143.179 47.44 143.35 50C143.563 52.56 143.734 54.6507 143.862 56.272C144.033 57.8933 144.161 59.216 144.246 60.24C144.331 61.2213 144.374 62.2453 144.374 63.312C144.374 63.696 144.353 64.08 144.31 64.464C144.31 64.8053 144.289 65.1467 144.246 65.488C145.057 65.0187 145.846 64.528 146.614 64.016C147.382 63.504 148.086 63.0133 148.726 62.544H151.414ZM137.654 63.376C137.654 62.48 137.611 61.648 137.526 60.88C137.483 60.112 137.398 59.152 137.27 58C137.142 56.848 136.993 55.3973 136.822 53.648C136.651 51.8987 136.481 49.6373 136.31 46.864C135.713 49.2533 134.987 51.536 134.134 53.712C133.323 55.888 132.342 58.128 131.19 60.432C131.446 60.6453 131.659 60.9227 131.83 61.264C132.001 61.6053 132.086 62.032 132.086 62.544C132.086 63.568 131.787 64.3573 131.19 64.912C130.635 65.4667 130.059 65.744 129.462 65.744C128.779 65.744 128.267 65.4453 127.926 64.848C127.926 66.3413 128.267 67.5147 128.95 68.368C129.633 69.1787 130.678 69.584 132.086 69.584C133.707 69.584 135.03 69.1147 136.054 68.176C137.121 67.2373 137.654 65.6373 137.654 63.376ZM150.889 42H153.001L154.921 33.168L161.577 32.272L159.465 42H164.393L163.945 44.24H158.953L154.793 63.76C154.708 64.1013 154.601 64.528 154.473 65.04C154.388 65.552 154.345 66.0427 154.345 66.512C154.345 67.28 154.494 67.984 154.793 68.624C155.134 69.2213 155.796 69.52 156.777 69.52C157.929 69.52 159.124 68.9013 160.361 67.664C161.598 66.4267 162.75 64.72 163.817 62.544H166.185C165.076 64.8907 163.966 66.832 162.857 68.368C161.748 69.904 160.681 71.12 159.657 72.016C158.633 72.912 157.63 73.5307 156.649 73.872C155.71 74.2133 154.857 74.384 154.089 74.384C152.894 74.384 151.913 74.192 151.145 73.808C150.377 73.3813 149.758 72.848 149.289 72.208C148.862 71.5253 148.542 70.7573 148.329 69.904C148.158 69.008 148.073 68.112 148.073 67.216C148.073 66.4053 148.137 65.5947 148.265 64.784C148.393 63.9307 148.521 63.184 148.649 62.544L152.553 44.24H150.441L150.889 42ZM191.806 42L187.134 63.76C186.921 64.6133 186.814 65.5733 186.814 66.64C186.814 67.3653 186.942 68.0267 187.198 68.624C187.454 69.2213 187.987 69.52 188.798 69.52C189.822 69.52 190.846 68.9013 191.87 67.664C192.937 66.4267 193.939 64.72 194.878 62.544H197.246C196.222 65.232 195.198 67.3653 194.174 68.944C193.15 70.48 192.147 71.6533 191.166 72.464C190.227 73.2747 189.31 73.7867 188.414 74C187.561 74.256 186.793 74.384 186.11 74.384C184.702 74.384 183.529 73.8933 182.59 72.912C181.694 71.9307 181.161 70.3307 180.99 68.112C180.009 69.8613 178.643 71.3547 176.894 72.592C175.187 73.7867 173.31 74.384 171.262 74.384C170.238 74.384 169.235 74.2133 168.254 73.872C167.273 73.488 166.398 72.8907 165.63 72.08C164.862 71.2267 164.243 70.16 163.774 68.88C163.305 67.5573 163.07 65.9573 163.07 64.08C163.07 62.6293 163.219 61.072 163.518 59.408C163.859 57.744 164.329 56.08 164.926 54.416C165.523 52.752 166.291 51.152 167.23 49.616C168.169 48.08 169.235 46.736 170.43 45.584C171.625 44.3893 172.969 43.4507 174.462 42.768C175.998 42.0427 177.662 41.68 179.454 41.68C180.478 41.68 181.523 41.9147 182.59 42.384C183.657 42.8533 184.361 43.7493 184.702 45.072L185.342 42H191.806ZM173.95 69.52C174.633 69.52 175.337 69.3493 176.062 69.008C176.787 68.624 177.47 68.1333 178.11 67.536C178.793 66.896 179.39 66.1493 179.902 65.296C180.414 64.4427 180.777 63.5253 180.99 62.544L184.062 48.016C183.934 47.2907 183.614 46.6507 183.102 46.096C182.59 45.4987 181.843 45.2 180.862 45.2C179.113 45.2 177.555 45.84 176.19 47.12C174.825 48.4 173.673 49.9573 172.734 51.792C171.795 53.6267 171.091 55.5893 170.622 57.68C170.153 59.7707 169.918 61.6053 169.918 63.184C169.918 65.616 170.281 67.28 171.006 68.176C171.731 69.072 172.713 69.52 173.95 69.52ZM222.805 42L216.277 72.72C217.429 72.336 218.474 71.9093 219.413 71.44C220.394 70.928 221.269 70.288 222.037 69.52C222.805 68.7093 223.509 67.7493 224.149 66.64C224.789 65.5307 225.386 64.1653 225.941 62.544H228.309C227.541 64.8053 226.73 66.6613 225.877 68.112C225.066 69.52 224.149 70.6933 223.125 71.632C222.101 72.528 220.97 73.232 219.733 73.744C218.538 74.256 217.215 74.6827 215.765 75.024L214.933 79.12C214.463 81.424 213.93 83.28 213.333 84.688C212.778 86.096 212.138 87.184 211.413 87.952C210.73 88.7627 209.962 89.296 209.109 89.552C208.255 89.8507 207.295 90 206.229 90C204.266 90 202.602 89.552 201.237 88.656C199.871 87.8027 199.189 86.3307 199.189 84.24C199.189 83.1733 199.487 82.1707 200.085 81.232C200.725 80.336 201.535 79.4827 202.517 78.672C203.498 77.8613 204.586 77.136 205.781 76.496C207.018 75.856 208.234 75.3013 209.429 74.832L210.645 68.944C209.535 70.1387 208.255 71.12 206.805 71.888C205.397 72.6133 203.903 72.976 202.325 72.976C201.301 72.976 200.298 72.8053 199.317 72.464C198.335 72.08 197.461 71.4827 196.693 70.672C195.925 69.8187 195.306 68.752 194.837 67.472C194.367 66.1493 194.133 64.5493 194.133 62.672C194.133 60.6667 194.474 58.448 195.157 56.016C195.882 53.584 196.927 51.3013 198.293 49.168C199.658 47.0347 201.365 45.264 203.413 43.856C205.461 42.4053 207.829 41.68 210.517 41.68C211.541 41.68 212.586 41.9147 213.653 42.384C214.719 42.8533 215.423 43.7493 215.765 45.072L216.405 42H222.805ZM205.013 68.112C205.61 68.112 206.271 67.9627 206.997 67.664C207.722 67.3227 208.405 66.896 209.045 66.384C209.727 65.8293 210.346 65.1893 210.901 64.464C211.455 63.696 211.861 62.864 212.117 61.968L215.125 47.952C214.997 47.2693 214.677 46.6507 214.165 46.096C213.653 45.4987 212.906 45.2 211.925 45.2C210.175 45.2 208.618 45.7973 207.253 46.992C205.887 48.144 204.735 49.5733 203.797 51.28C202.858 52.944 202.154 54.736 201.685 56.656C201.215 58.576 200.981 60.2827 200.981 61.776C200.981 64.208 201.343 65.872 202.069 66.768C202.794 67.664 203.775 68.112 205.013 68.112ZM204.053 86.672C205.247 86.672 206.165 85.9893 206.805 84.624C207.445 83.2587 207.999 81.4667 208.469 79.248L208.917 77.2C206.527 78.224 204.714 79.3547 203.477 80.592C202.282 81.8293 201.685 83.024 201.685 84.176C201.685 84.9013 201.877 85.4987 202.26 85.968C202.687 86.4373 203.285 86.672 204.053 86.672ZM236.715 42L235.563 47.248C236.16 46.5653 236.779 45.904 237.419 45.264C238.059 44.5813 238.72 43.984 239.403 43.472C240.128 42.9173 240.875 42.4907 241.643 42.192C242.411 41.8507 243.243 41.68 244.139 41.68C245.419 41.68 246.336 41.9787 246.891 42.576C247.446 43.1307 247.723 43.8347 247.723 44.688C247.723 45.4987 247.574 46.1813 247.275 46.736C247.019 47.248 246.699 47.6747 246.315 48.016C245.931 48.3147 245.526 48.528 245.099 48.656C244.672 48.784 244.31 48.848 244.011 48.848C243.627 48.848 243.328 48.7627 243.115 48.592C242.944 48.4213 242.752 48.2507 242.539 48.08C242.368 47.8667 242.155 47.6747 241.899 47.504C241.643 47.3333 241.28 47.248 240.811 47.248C239.872 47.248 238.87 47.5893 237.803 48.272C236.779 48.912 235.819 49.616 234.923 50.384L229.867 74H223.467L230.251 42H236.715ZM275.431 42L270.759 63.76C270.546 64.6133 270.439 65.5733 270.439 66.64C270.439 67.3653 270.567 68.0267 270.823 68.624C271.079 69.2213 271.612 69.52 272.423 69.52C273.447 69.52 274.471 68.9013 275.495 67.664C276.562 66.4267 277.564 64.72 278.503 62.544H280.871C279.847 65.232 278.823 67.3653 277.799 68.944C276.775 70.48 275.772 71.6533 274.791 72.464C273.852 73.2747 272.935 73.7867 272.039 74C271.186 74.256 270.418 74.384 269.735 74.384C268.327 74.384 267.154 73.8933 266.215 72.912C265.319 71.9307 264.786 70.3307 264.615 68.112C263.634 69.8613 262.268 71.3547 260.519 72.592C258.812 73.7867 256.935 74.384 254.887 74.384C253.863 74.384 252.86 74.2133 251.879 73.872C250.898 73.488 250.023 72.8907 249.255 72.08C248.487 71.2267 247.868 70.16 247.399 68.88C246.93 67.5573 246.695 65.9573 246.695 64.08C246.695 62.6293 246.844 61.072 247.143 59.408C247.484 57.744 247.954 56.08 248.551 54.416C249.148 52.752 249.916 51.152 250.855 49.616C251.794 48.08 252.86 46.736 254.055 45.584C255.25 44.3893 256.594 43.4507 258.087 42.768C259.623 42.0427 261.287 41.68 263.079 41.68C264.103 41.68 265.148 41.9147 266.215 42.384C267.282 42.8533 267.986 43.7493 268.327 45.072L268.967 42H275.431ZM257.575 69.52C258.258 69.52 258.962 69.3493 259.687 69.008C260.412 68.624 261.095 68.1333 261.735 67.536C262.418 66.896 263.015 66.1493 263.527 65.296C264.039 64.4427 264.402 63.5253 264.615 62.544L267.687 48.016C267.559 47.2907 267.239 46.6507 266.727 46.096C266.215 45.4987 265.468 45.2 264.487 45.2C262.738 45.2 261.18 45.84 259.815 47.12C258.45 48.4 257.298 49.9573 256.359 51.792C255.42 53.6267 254.716 55.5893 254.247 57.68C253.778 59.7707 253.543 61.6053 253.543 63.184C253.543 65.616 253.906 67.28 254.631 68.176C255.356 69.072 256.338 69.52 257.575 69.52ZM314.942 66.128C314.942 68.3893 315.71 69.52 317.246 69.52C317.843 69.52 318.504 69.3707 319.23 69.072C319.144 70.224 318.888 71.1627 318.462 71.888C318.035 72.5707 317.523 73.104 316.926 73.488C316.371 73.8293 315.795 74.064 315.198 74.192C314.6 74.32 314.088 74.384 313.662 74.384C312.04 74.384 310.718 73.7867 309.694 72.592C308.67 71.3547 308.158 69.5627 308.158 67.216C308.158 65.8507 308.307 64.4 308.606 62.864C308.947 61.328 309.31 59.8133 309.694 58.32C310.078 56.784 310.419 55.312 310.718 53.904C311.059 52.496 311.229 51.216 311.229 50.064C311.229 48.9973 311.038 48.144 310.654 47.504C310.27 46.864 309.523 46.544 308.414 46.544C307.048 46.544 305.875 47.0987 304.894 48.208C303.955 49.3173 302.974 51.0453 301.95 53.392L297.534 74H291.07L295.614 52.624C295.742 52.0267 295.827 51.4933 295.87 51.024C295.912 50.5547 295.934 50.128 295.934 49.744C295.934 48.5493 295.699 47.7173 295.23 47.248C294.76 46.7787 294.12 46.544 293.31 46.544C291.944 46.544 290.771 47.12 289.79 48.272C288.851 49.3813 287.87 51.088 286.845 53.392L282.43 74H276.029L282.814 42H289.278L288.382 46.096C289.875 44.176 291.304 42.96 292.67 42.448C294.035 41.936 295.251 41.68 296.318 41.68C298.494 41.68 300.051 42.2133 300.99 43.28C301.971 44.304 302.568 45.5627 302.782 47.056C303.592 45.8613 304.382 44.9227 305.15 44.24C305.918 43.5147 306.664 42.96 307.39 42.576C308.158 42.192 308.862 41.9573 309.502 41.872C310.184 41.744 310.824 41.68 311.422 41.68C312.702 41.68 313.768 41.872 314.622 42.256C315.475 42.64 316.158 43.1733 316.67 43.856C317.182 44.496 317.523 45.264 317.694 46.16C317.907 47.0133 318.014 47.9093 318.014 48.848C318.014 50.256 317.843 51.7493 317.502 53.328C317.203 54.864 316.862 56.3787 316.478 57.872C316.094 59.3653 315.731 60.8373 315.39 62.288C315.091 63.696 314.942 64.976 314.942 66.128Z" fill="url(#paint0_linear)"/>
<defs>
<linearGradient id="paint0_linear" x1="46.8186" y1="10" x2="348.834" y2="16.4158" gradientUnits="userSpaceOnUse">
<stop stop-color="#BF863F"/>
<stop offset="0.65625" stop-color="#F2A71B"/>
<stop offset="1" stop-color="#F2C335"/>
</linearGradient>
</defs>
</svg>
