<svg width="25" height="26" viewBox="0 0 25 26" fill="none" xmlns="http://www.w3.org/2000/svg">
<path d="M12.4618 13C16.0856 13 19.0233 10.3137 19.0233 7C19.0233 3.68629 16.0856 1 12.4618 1C8.83804 1 5.90039 3.68629 5.90039 7C5.90039 10.3137 8.83804 13 12.4618 13Z" fill="white" stroke="white" stroke-width="2"/>
<path d="M19.0235 15.4H19.4854C20.4448 15.4002 21.371 15.7208 22.0902 16.3015C22.8093 16.8822 23.2718 17.6831 23.3908 18.5536L23.9039 22.3024C23.95 22.6401 23.9171 22.9829 23.8073 23.3081C23.6975 23.6333 23.5133 23.9334 23.2669 24.1885C23.0206 24.4437 22.7177 24.648 22.3784 24.7879C22.0391 24.9278 21.6712 25.0001 21.299 25H3.62514C3.25295 25.0001 2.885 24.9278 2.54571 24.7879C2.20643 24.648 1.90356 24.4437 1.65721 24.1885C1.41086 23.9334 1.22666 23.6333 1.11685 23.3081C1.00703 22.9829 0.974105 22.6401 1.02026 22.3024L1.53205 18.5536C1.65107 17.6827 2.11393 16.8815 2.83361 16.3007C3.55329 15.72 4.48019 15.3997 5.44003 15.4H5.90064" fill="white"/>
<path d="M19.0235 15.4H19.4854C20.4448 15.4002 21.371 15.7208 22.0902 16.3015C22.8093 16.8822 23.2718 17.6831 23.3908 18.5536L23.9039 22.3024C23.95 22.6401 23.9171 22.9829 23.8073 23.3081C23.6975 23.6333 23.5133 23.9334 23.2669 24.1885C23.0206 24.4437 22.7177 24.648 22.3784 24.7879C22.0391 24.9278 21.6712 25.0001 21.299 25H3.62514C3.25295 25.0001 2.885 24.9278 2.54571 24.7879C2.20643 24.648 1.90356 24.4437 1.65721 24.1885C1.41086 23.9334 1.22666 23.6333 1.11685 23.3081C1.00703 22.9829 0.974105 22.6401 1.02026 22.3024L1.53205 18.5536C1.65107 17.6827 2.11393 16.8815 2.83361 16.3007C3.55329 15.72 4.48019 15.3997 5.44003 15.4H5.90064" stroke="white" stroke-width="2" stroke-linecap="round" stroke-linejoin="round"/>
</svg>
