<svg width="375" height="812" viewBox="0 0 375 812" fill="none" xmlns="http://www.w3.org/2000/svg">
<g clip-path="url(#clip0)">
<rect width="375" height="812" fill="white"/>
<g opacity="0.2">
<path d="M230.799 510.989C231.069 508.645 231.727 506.348 232.732 504.434C238.069 493.859 249.285 494.098 255.086 503.668C256.594 506.109 257.715 509.171 257.986 512.521C258.257 515.822 257.561 519.411 255.898 521.612C254.235 523.813 251.605 524.34 249.749 522.473C248.975 521.708 248.24 520.607 247.776 519.555C247.274 518.406 246.771 517.21 245.765 516.684C245.34 516.444 244.837 516.396 244.373 516.396C242.865 516.492 241.627 517.401 240.931 519.028C240.351 520.368 239.771 521.899 238.572 522.569C237.76 523 236.87 523 236.02 522.713C231.572 521.325 230.219 516.109 230.799 510.989Z" fill="#CE9A90"/>
<path d="M236.987 483.906C233.236 485.629 232.462 492.424 236.446 494.433C238.147 495.295 240.236 494.72 241.473 493.046C242.711 491.371 243.02 488.739 242.169 486.729C241.28 484.528 238.959 482.997 236.987 483.906Z" fill="#CE9A90"/>
<path d="M248.937 483.906C245.185 485.629 244.412 492.424 248.395 494.433C250.097 495.295 252.185 494.72 253.423 493.046C254.66 491.371 254.97 488.739 254.119 486.729C253.229 484.528 250.87 482.997 248.937 483.906Z" fill="#CE9A90"/>
<path d="M258.837 493.477C255.704 494.338 254.776 499.554 257.097 502.185C258.837 504.195 261.931 503.86 263.4 501.563C265.991 497.496 262.627 492.472 258.837 493.477Z" fill="#CE9A90"/>
<path d="M227.473 493.477C224.341 494.338 223.412 499.554 225.733 502.185C227.473 504.195 230.567 503.86 232.037 501.563C234.666 497.496 231.302 492.472 227.473 493.477Z" fill="#CE9A90"/>
<path d="M15.1939 464.048C14.9618 461.703 15.0779 459.263 15.6193 457.062C18.4424 445.099 29.3097 441.606 37.0057 448.879C38.9781 450.746 40.7571 453.33 41.7239 456.44C42.6907 459.55 42.8067 463.235 41.6852 465.914C40.5637 468.594 38.1273 469.981 35.9615 468.785C35.072 468.307 34.1052 467.493 33.4478 466.584C32.713 465.627 31.9782 464.67 30.8953 464.479C30.4312 464.383 29.9285 464.479 29.5031 464.67C28.0721 465.244 27.0666 466.584 26.7959 468.355C26.5639 469.838 26.2932 471.513 25.2877 472.518C24.5915 473.235 23.702 473.475 22.8512 473.522C18.1717 473.714 15.7353 469.168 15.1939 464.048Z" fill="#CE9A90"/>
<path d="M15.2322 435.912C11.9836 438.831 12.7184 445.626 17.0111 446.248C18.8288 446.487 20.7238 445.243 21.5746 443.233C22.3867 441.224 22.116 438.592 20.8785 436.917C19.5249 435.051 16.9338 434.381 15.2322 435.912Z" fill="#CE9A90"/>
<path d="M26.7571 431.941C23.5085 434.86 24.2433 441.655 28.536 442.277C30.3537 442.516 32.2487 441.272 33.0995 439.262C33.9117 437.252 33.6409 434.621 32.4034 432.946C31.0111 431.08 28.42 430.41 26.7571 431.941Z" fill="#CE9A90"/>
<path d="M38.3599 437.874C35.5367 439.741 35.7688 445.052 38.5919 446.87C40.6803 448.21 43.6195 446.87 44.509 444.191C46.1333 439.31 41.8018 435.578 38.3599 437.874Z" fill="#CE9A90"/>
<path d="M8.1558 448.305C5.33264 450.172 5.56468 455.483 8.38785 457.301C10.4762 458.641 13.4154 457.301 14.3049 454.622C15.9292 449.741 11.5977 446.009 8.1558 448.305Z" fill="#CE9A90"/>
<path d="M98.9996 583.243C99.7731 581.09 100.933 579.08 102.287 577.549C109.712 569.128 120.463 573.099 123.983 584.248C124.911 587.119 125.336 590.421 124.872 593.723C124.408 597.024 122.939 600.23 120.889 601.809C118.8 603.388 116.132 603.006 114.778 600.613C114.198 599.608 113.734 598.316 113.541 597.12C113.309 595.828 113.077 594.536 112.226 593.675C111.839 593.292 111.414 593.101 110.95 592.957C109.48 592.526 108.088 593.005 107.082 594.393C106.232 595.493 105.342 596.785 104.066 597.024C103.176 597.168 102.326 596.833 101.552 596.307C97.4914 593.436 97.298 587.981 98.9996 583.243Z" fill="#CE9A90"/>
<path d="M110.834 559.223C106.85 559.653 104.607 565.922 108.01 569.175C109.441 570.563 111.607 570.707 113.154 569.51C114.701 568.314 115.552 565.874 115.204 563.673C114.856 561.232 112.922 559.031 110.834 559.223Z" fill="#CE9A90"/>
<path d="M122.32 563.194C118.337 563.625 116.094 569.893 119.497 573.147C120.928 574.535 123.093 574.678 124.64 573.482C126.187 572.286 127.038 569.845 126.69 567.644C126.342 565.204 124.408 563.003 122.32 563.194Z" fill="#CE9A90"/>
<path d="M129.784 575.731C126.574 575.492 124.524 580.229 126.187 583.579C127.425 586.067 130.48 586.832 132.375 585.11C135.817 581.952 133.651 575.97 129.784 575.731Z" fill="#CE9A90"/>
<path d="M99.58 565.299C96.3701 565.06 94.3204 569.797 95.9833 573.147C97.2209 575.635 100.276 576.401 102.171 574.678C105.613 571.52 103.486 565.539 99.58 565.299Z" fill="#CE9A90"/>
<path d="M336.3 452.852C337.267 450.842 338.621 449.024 340.09 447.684C348.289 440.411 358.576 445.961 361.013 457.541C361.632 460.508 361.748 463.905 360.974 467.063C360.201 470.269 358.46 473.236 356.217 474.48C354.013 475.724 351.383 474.959 350.262 472.375C349.797 471.322 349.449 469.934 349.372 468.738C349.256 467.446 349.179 466.106 348.405 465.149C348.057 464.719 347.632 464.431 347.206 464.24C345.775 463.618 344.344 463.905 343.223 465.054C342.295 466.058 341.251 467.159 339.974 467.207C339.085 467.207 338.273 466.776 337.577 466.106C333.825 462.757 334.173 457.302 336.3 452.852Z" fill="#CE9A90"/>
<path d="M350.377 430.744C346.394 430.553 343.532 436.486 346.626 440.219C347.941 441.798 350.068 442.276 351.731 441.319C353.394 440.362 354.477 438.065 354.322 435.816C354.167 433.328 352.466 430.84 350.377 430.744Z" fill="#CE9A90"/>
<path d="M361.399 436.343C357.416 436.151 354.554 442.085 357.648 445.817C358.963 447.396 361.09 447.875 362.753 446.918C364.416 445.961 365.499 443.664 365.344 441.415C365.189 438.927 363.488 436.439 361.399 436.343Z" fill="#CE9A90"/>
<path d="M367.587 449.885C364.416 449.215 361.941 453.569 363.294 457.11C364.261 459.79 367.239 460.938 369.289 459.503C373.001 456.967 371.416 450.698 367.587 449.885Z" fill="#CE9A90"/>
<path d="M338.62 435.099C335.449 434.429 332.974 438.784 334.328 442.325C335.294 445.004 338.272 446.153 340.322 444.717C344.035 442.133 342.449 435.913 338.62 435.099Z" fill="#CE9A90"/>
<path d="M224.611 358.204C224.263 355.907 224.263 353.466 224.689 351.217C226.893 339.063 237.567 334.757 245.611 341.408C247.7 343.131 249.556 345.523 250.716 348.586C251.838 351.6 252.147 355.285 251.142 358.012C250.175 360.787 247.816 362.367 245.573 361.314C244.644 360.883 243.678 360.165 242.943 359.352C242.169 358.491 241.396 357.534 240.274 357.486C239.81 357.438 239.307 357.581 238.882 357.821C237.451 358.538 236.562 359.878 236.368 361.697C236.214 363.228 236.059 364.903 235.092 366.003C234.435 366.769 233.584 367.104 232.694 367.199C228.092 367.63 225.424 363.276 224.611 358.204Z" fill="#CE9A90"/>
<path d="M224.611 143.562C224.263 141.266 224.263 138.825 224.689 136.576C226.893 124.422 237.567 120.116 245.611 126.767C247.7 128.49 249.556 130.882 250.716 133.945C251.838 136.959 252.147 140.644 251.142 143.371C250.175 146.146 247.816 147.725 245.573 146.673C244.644 146.242 243.678 145.524 242.943 144.711C242.169 143.85 241.396 142.893 240.274 142.845C239.81 142.797 239.307 142.94 238.882 143.18C237.451 143.897 236.562 145.237 236.368 147.055C236.214 148.587 236.059 150.261 235.092 151.362C234.435 152.128 233.584 152.463 232.694 152.558C228.092 152.989 225.424 148.635 224.611 143.562Z" fill="#CE9A90"/>
<path d="M223.258 330.116C220.164 333.274 221.247 340.021 225.539 340.308C227.357 340.403 229.213 339.016 229.91 336.958C230.644 334.901 230.219 332.269 228.904 330.69C227.473 328.919 224.882 328.441 223.258 330.116Z" fill="#CE9A90"/>
<path d="M234.551 325.235C231.457 328.393 232.54 335.14 236.832 335.427C238.65 335.523 240.506 334.135 241.203 332.078C241.937 330.02 241.512 327.388 240.197 325.809C238.766 324.087 236.136 323.608 234.551 325.235Z" fill="#CE9A90"/>
<path d="M246.423 330.259C243.677 332.365 244.18 337.628 247.08 339.207C249.246 340.403 252.069 338.824 252.842 336.097C254.273 331.12 249.749 327.723 246.423 330.259Z" fill="#CE9A90"/>
<path d="M216.837 342.987C214.091 345.093 214.594 350.356 217.495 351.935C219.66 353.132 222.484 351.553 223.257 348.825C224.649 343.849 220.163 340.499 216.837 342.987Z" fill="#CE9A90"/>
<path d="M223.258 115.474C220.164 118.632 221.247 125.379 225.539 125.666C227.357 125.762 229.213 124.374 229.91 122.317C230.644 120.259 230.219 117.627 228.904 116.048C227.473 114.278 224.882 113.799 223.258 115.474Z" fill="#CE9A90"/>
<path d="M234.551 110.593C231.457 113.751 232.54 120.498 236.832 120.785C238.65 120.881 240.506 119.493 241.203 117.436C241.937 115.378 241.512 112.747 240.197 111.168C238.766 109.445 236.136 108.966 234.551 110.593Z" fill="#CE9A90"/>
<path d="M246.423 115.618C243.677 117.723 244.18 122.987 247.08 124.566C249.246 125.762 252.069 124.183 252.842 121.456C254.273 116.479 249.749 113.082 246.423 115.618Z" fill="#CE9A90"/>
<path d="M216.837 128.346C214.091 130.451 214.594 135.715 217.495 137.294C219.66 138.49 222.484 136.911 223.257 134.183C224.649 129.207 220.163 125.857 216.837 128.346Z" fill="#CE9A90"/>
<path d="M11.8683 252.216C13.0285 250.349 14.4981 248.723 16.1224 247.622C24.9013 241.545 34.647 248.435 36.0393 260.302C36.3873 263.365 36.194 266.714 35.1498 269.777C34.1056 272.839 32.0946 275.567 29.7742 276.476C27.4538 277.433 24.94 276.284 24.0505 273.557C23.7024 272.408 23.4704 271.021 23.4704 269.825C23.4704 268.533 23.5091 267.193 22.8129 266.092C22.5035 265.614 22.1168 265.279 21.6914 265.04C20.3378 264.226 18.9069 264.274 17.6694 265.327C16.6638 266.188 15.5423 267.193 14.2274 267.001C13.3379 266.906 12.5645 266.331 11.907 265.614C8.54241 261.738 9.35456 256.379 11.8683 252.216Z" fill="#CE9A90"/>
<path d="M11.8683 37.5739C13.0285 35.7078 14.4981 34.0809 16.1224 32.9803C24.9013 26.9033 34.647 33.7938 36.0393 45.6606C36.3873 48.723 36.194 52.0726 35.1498 55.135C34.1056 58.1974 32.0946 60.9249 29.7742 61.834C27.4538 62.791 24.94 61.6426 24.0505 58.9151C23.7024 57.7667 23.4704 56.3791 23.4704 55.1828C23.4704 53.8909 23.5091 52.5511 22.8129 51.4505C22.5035 50.972 22.1168 50.6371 21.6914 50.3978C20.3378 49.5844 18.9069 49.6322 17.6694 50.6849C16.6638 51.5462 15.5423 52.5511 14.2274 52.3597C13.3379 52.264 12.5645 51.6898 11.907 50.972C8.54241 47.0961 9.35456 41.7369 11.8683 37.5739Z" fill="#CE9A90"/>
<path d="M27.8406 232.166C23.8959 231.448 20.5313 236.951 23.2771 241.066C24.4373 242.837 26.487 243.555 28.2273 242.837C29.9677 242.119 31.2439 239.966 31.3212 237.717C31.3986 235.276 29.929 232.549 27.8406 232.166Z" fill="#CE9A90"/>
<path d="M38.3206 239.296C34.3759 238.578 31.0113 244.081 33.7571 248.196C34.9173 249.966 36.967 250.684 38.7073 249.966C40.4476 249.248 41.7239 247.095 41.8012 244.846C41.8399 242.406 40.3703 239.678 38.3206 239.296Z" fill="#CE9A90"/>
<path d="M43.2321 253.603C40.1382 252.502 37.3151 256.474 38.2819 260.206C39.0167 262.982 41.8399 264.561 44.0056 263.412C47.9889 261.355 46.9834 254.943 43.2321 253.603Z" fill="#CE9A90"/>
<path d="M15.7741 234.894C12.6802 233.793 9.85704 237.765 10.8239 241.497C11.5587 244.272 14.3818 245.851 16.5476 244.703C20.5309 242.645 19.5254 236.233 15.7741 234.894Z" fill="#CE9A90"/>
<path d="M27.8406 17.5246C23.8959 16.8068 20.5313 22.3096 23.2771 26.4247C24.4373 28.1952 26.487 28.913 28.2273 28.1952C29.9677 27.4775 31.2439 25.3242 31.3212 23.0752C31.3986 20.6349 29.929 17.9074 27.8406 17.5246Z" fill="#CE9A90"/>
<path d="M38.3206 24.654C34.3759 23.9362 31.0113 29.439 33.7571 33.5541C34.9173 35.3246 36.967 36.0424 38.7073 35.3246C40.4476 34.6068 41.7239 32.4536 41.8012 30.2046C41.8399 27.7643 40.3703 25.0368 38.3206 24.654Z" fill="#CE9A90"/>
<path d="M43.2321 38.9619C40.1382 37.8614 37.3151 41.8329 38.2819 45.5653C39.0167 48.3406 41.8399 49.9196 44.0056 48.7712C47.9889 46.7137 46.9834 40.3017 43.2321 38.9619Z" fill="#CE9A90"/>
<path d="M15.7741 20.2521C12.6802 19.1515 9.85704 23.1231 10.8239 26.8554C11.5587 29.6307 14.3818 31.2098 16.5476 30.0614C20.5309 28.0038 19.5254 21.5919 15.7741 20.2521Z" fill="#CE9A90"/>
<path d="M98.9604 384.474C99.7339 382.321 100.933 380.359 102.286 378.827C109.789 370.502 120.502 374.664 123.943 385.861C124.833 388.732 125.22 392.082 124.717 395.336C124.214 398.59 122.745 401.796 120.618 403.327C118.529 404.858 115.861 404.475 114.507 402.035C113.966 401.03 113.502 399.738 113.308 398.542C113.076 397.25 112.883 395.958 112.032 395.097C111.645 394.714 111.22 394.475 110.756 394.331C109.286 393.9 107.894 394.331 106.85 395.671C105.999 396.771 105.071 398.063 103.795 398.255C102.905 398.398 102.054 398.063 101.281 397.489C97.3748 394.618 97.2201 389.163 98.9604 384.474Z" fill="#CE9A90"/>
<path d="M111.066 360.596C107.083 360.931 104.762 367.2 108.166 370.549C109.596 371.937 111.762 372.128 113.309 370.98C114.895 369.831 115.746 367.391 115.436 365.142C115.049 362.654 113.116 360.405 111.066 360.596Z" fill="#CE9A90"/>
<path d="M122.513 364.759C118.53 365.094 116.21 371.363 119.613 374.712C121.044 376.1 123.209 376.291 124.756 375.143C126.342 373.995 127.193 371.554 126.883 369.305C126.497 366.817 124.602 364.568 122.513 364.759Z" fill="#CE9A90"/>
<path d="M129.822 377.391C126.612 377.104 124.524 381.794 126.148 385.143C127.347 387.631 130.402 388.445 132.336 386.77C135.817 383.708 133.728 377.726 129.822 377.391Z" fill="#CE9A90"/>
<path d="M99.7348 366.482C96.5249 366.194 94.4366 370.884 96.0608 374.233C97.2597 376.722 100.315 377.535 102.249 375.86C105.729 372.798 103.641 366.817 99.7348 366.482Z" fill="#CE9A90"/>
<path d="M169.733 238.53C170.507 236.377 171.706 234.415 173.059 232.884C180.562 224.558 191.274 228.721 194.716 239.918C195.606 242.789 195.993 246.139 195.49 249.392C194.987 252.646 193.518 255.852 191.391 257.383C189.302 258.915 186.634 258.532 185.28 256.091C184.739 255.087 184.275 253.795 184.081 252.598C183.849 251.306 183.656 250.015 182.805 249.153C182.418 248.77 181.993 248.531 181.529 248.388C180.059 247.957 178.667 248.388 177.623 249.727C176.772 250.828 175.844 252.12 174.568 252.311C173.678 252.455 172.827 252.12 172.054 251.546C168.148 248.675 167.993 243.22 169.733 238.53Z" fill="#CE9A90"/>
<path d="M169.733 23.8888C170.507 21.7356 171.706 19.7737 173.059 18.2425C180.562 9.91657 191.274 14.0795 194.716 25.2765C195.606 28.1475 195.993 31.497 195.49 34.7509C194.987 38.0047 193.518 41.2106 191.391 42.7419C189.302 44.2731 186.634 43.8903 185.28 41.4499C184.739 40.445 184.275 39.1531 184.081 37.9568C183.849 36.6649 183.656 35.3729 182.805 34.5116C182.418 34.1288 181.993 33.8896 181.529 33.746C180.059 33.3153 178.667 33.746 177.623 35.0858C176.772 36.1864 175.844 37.4783 174.568 37.6697C173.678 37.8133 172.827 37.4783 172.054 36.9041C168.148 34.0331 167.993 28.5782 169.733 23.8888Z" fill="#CE9A90"/>
<path d="M181.838 214.653C177.855 214.988 175.534 221.256 178.938 224.606C180.368 225.994 182.534 226.185 184.081 225.037C185.667 223.888 186.518 221.448 186.208 219.199C185.821 216.711 183.888 214.462 181.838 214.653Z" fill="#CE9A90"/>
<path d="M193.286 218.816C189.302 219.151 186.982 225.419 190.385 228.769C191.816 230.157 193.982 230.348 195.529 229.2C197.076 228.051 197.965 225.611 197.656 223.362C197.269 220.874 195.374 218.625 193.286 218.816Z" fill="#CE9A90"/>
<path d="M200.595 231.448C197.385 231.161 195.297 235.85 196.921 239.2C198.12 241.688 201.175 242.502 203.109 240.827C206.59 237.764 204.501 231.783 200.595 231.448Z" fill="#CE9A90"/>
<path d="M170.507 220.538C167.297 220.251 165.209 224.94 166.833 228.29C168.032 230.778 171.087 231.591 173.021 229.917C176.501 226.854 174.413 220.873 170.507 220.538Z" fill="#CE9A90"/>
<path d="M181.838 0.0113953C177.855 0.346347 175.534 6.61473 178.938 9.96425C180.368 11.3519 182.534 11.5433 184.081 10.3949C185.667 9.2465 186.518 6.80613 186.208 4.55717C185.821 2.06896 183.888 -0.180006 181.838 0.0113953Z" fill="#CE9A90"/>
<path d="M193.286 4.17448C189.302 4.50943 186.982 10.7778 190.385 14.1273C191.816 15.515 193.982 15.7064 195.529 14.558C197.076 13.4096 197.965 10.9692 197.656 8.72026C197.269 6.23204 195.374 3.98308 193.286 4.17448Z" fill="#CE9A90"/>
<path d="M200.595 16.8065C197.385 16.5194 195.297 21.2087 196.921 24.5583C198.12 27.0465 201.175 27.8599 203.109 26.1852C206.59 23.1228 204.501 17.1415 200.595 16.8065Z" fill="#CE9A90"/>
<path d="M170.507 5.89734C167.297 5.61024 165.209 10.2996 166.833 13.6491C168.032 16.1373 171.087 16.9508 173.021 15.276C176.501 12.2136 174.413 6.2323 170.507 5.89734Z" fill="#CE9A90"/>
<path d="M337.538 261.211C337.809 258.867 338.466 256.57 339.472 254.656C344.809 244.081 356.024 244.32 361.825 253.89C363.333 256.33 364.455 259.393 364.725 262.742C364.996 266.044 364.3 269.633 362.637 271.834C360.974 274.035 358.344 274.561 356.488 272.695C355.715 271.93 354.98 270.829 354.516 269.776C354.013 268.628 353.51 267.432 352.505 266.905C352.079 266.666 351.576 266.618 351.112 266.618C349.604 266.714 348.367 267.623 347.67 269.25C347.09 270.59 346.51 272.121 345.311 272.791C344.499 273.222 343.61 273.222 342.759 272.935C338.311 271.547 336.958 266.331 337.538 261.211Z" fill="#CE9A90"/>
<path d="M337.538 46.5696C337.809 44.225 338.466 41.9281 339.472 40.0141C344.809 29.4392 356.024 29.6785 361.825 39.2485C363.333 41.6889 364.455 44.7513 364.725 48.1008C364.996 51.4025 364.3 54.9913 362.637 57.1924C360.974 59.3935 358.344 59.9198 356.488 58.0537C355.715 57.2881 354.98 56.1875 354.516 55.1348C354.013 53.9864 353.51 52.7902 352.505 52.2638C352.079 52.0246 351.576 51.9767 351.112 51.9767C349.604 52.0724 348.367 52.9816 347.67 54.6085C347.09 55.9483 346.51 57.4795 345.311 58.1494C344.499 58.58 343.61 58.58 342.759 58.2929C338.311 56.9053 336.958 51.6896 337.538 46.5696Z" fill="#CE9A90"/>
<path d="M343.725 234.128C339.974 235.85 339.2 242.645 343.184 244.655C344.885 245.516 346.974 244.942 348.211 243.267C349.449 241.592 349.758 238.961 348.908 236.951C348.018 234.75 345.698 233.219 343.725 234.128Z" fill="#CE9A90"/>
<path d="M355.675 234.128C351.924 235.85 351.15 242.645 355.134 244.655C356.835 245.516 358.924 244.942 360.161 243.267C361.399 241.592 361.708 238.961 360.857 236.951C359.968 234.75 357.609 233.219 355.675 234.128Z" fill="#CE9A90"/>
<path d="M365.576 243.698C362.443 244.559 361.515 249.775 363.835 252.407C365.576 254.416 368.67 254.081 370.139 251.785C372.73 247.717 369.366 242.693 365.576 243.698Z" fill="#CE9A90"/>
<path d="M334.211 243.698C331.079 244.559 330.151 249.775 332.471 252.407C334.211 254.416 337.305 254.081 338.775 251.785C341.405 247.717 338.04 242.693 334.211 243.698Z" fill="#CE9A90"/>
<path d="M343.725 19.4867C339.974 21.2093 339.2 28.004 343.184 30.0137C344.885 30.875 346.974 30.3008 348.211 28.6261C349.449 26.9513 349.758 24.3195 348.908 22.3098C348.018 20.1087 345.698 18.5775 343.725 19.4867Z" fill="#CE9A90"/>
<path d="M355.675 19.4865C351.924 21.2092 351.15 28.0039 355.134 30.0136C356.835 30.8749 358.924 30.3007 360.161 28.6259C361.399 26.9512 361.708 24.3194 360.857 22.3097C359.968 20.1086 357.609 18.5774 355.675 19.4865Z" fill="#CE9A90"/>
<path d="M365.576 29.0567C362.443 29.918 361.515 35.1337 363.835 37.7655C365.576 39.7752 368.67 39.4402 370.139 37.1434C372.73 33.0762 369.366 28.0519 365.576 29.0567Z" fill="#CE9A90"/>
<path d="M334.211 29.0567C331.079 29.918 330.151 35.1337 332.471 37.7655C334.211 39.7752 337.305 39.4402 338.775 37.1434C341.405 33.0762 338.04 28.0519 334.211 29.0567Z" fill="#CE9A90"/>
<path d="M197.269 677.748C197.308 675.403 197.695 673.01 198.468 670.905C202.645 659.564 213.783 657.985 220.551 666.503C222.291 668.704 223.76 671.527 224.379 674.781C224.998 678.035 224.689 681.671 223.258 684.159C221.827 686.6 219.274 687.557 217.263 686.026C216.413 685.404 215.562 684.399 215.02 683.442C214.401 682.389 213.783 681.288 212.7 680.906C212.236 680.762 211.733 680.762 211.269 680.858C209.761 681.193 208.639 682.293 208.175 684.064C207.75 685.499 207.324 687.126 206.203 687.94C205.429 688.514 204.54 688.61 203.689 688.514C199.125 687.844 197.23 682.915 197.269 677.748Z" fill="#CE9A90"/>
<path d="M200.556 649.899C196.998 652.196 196.96 659.086 201.137 660.426C202.915 661 204.927 660.091 205.971 658.225C207.015 656.359 207.054 653.727 206.009 651.813C204.888 649.803 202.374 648.703 200.556 649.899Z" fill="#CE9A90"/>
<path d="M212.39 647.937C208.832 650.234 208.794 657.124 212.97 658.464C214.749 659.038 216.76 658.129 217.805 656.263C218.849 654.397 218.888 651.765 217.843 649.851C216.722 647.841 214.208 646.741 212.39 647.937Z" fill="#CE9A90"/>
<path d="M223.219 655.832C220.203 657.172 219.816 662.483 222.407 664.78C224.341 666.455 227.358 665.689 228.556 663.153C230.722 658.608 226.855 654.205 223.219 655.832Z" fill="#CE9A90"/>
<path d="M192.125 660.904C189.109 662.244 188.722 667.555 191.313 669.852C193.247 671.527 196.263 670.761 197.462 668.225C199.667 663.727 195.799 659.277 192.125 660.904Z" fill="#CE9A90"/>
<path d="M221.633 801.202C221.672 798.857 222.059 796.464 222.832 794.359C227.009 783.019 238.147 781.439 244.915 789.957C246.655 792.158 248.125 794.981 248.744 798.235C249.362 801.489 249.053 805.125 247.622 807.614C246.191 810.054 243.639 811.011 241.628 809.48C240.777 808.858 239.926 807.853 239.385 806.896C238.766 805.843 238.147 804.743 237.064 804.36C236.6 804.216 236.097 804.216 235.633 804.312C234.125 804.647 233.003 805.747 232.539 807.518C232.114 808.953 231.689 810.58 230.567 811.394C229.794 811.968 228.904 812.064 228.053 811.968C223.49 811.298 221.595 806.369 221.633 801.202Z" fill="#CE9A90"/>
<path d="M224.921 773.353C221.363 775.649 221.325 782.54 225.501 783.88C227.28 784.454 229.291 783.545 230.335 781.679C231.38 779.812 231.418 777.181 230.374 775.267C229.253 773.257 226.739 772.156 224.921 773.353Z" fill="#CE9A90"/>
<path d="M236.755 771.391C233.197 773.687 233.158 780.578 237.335 781.918C239.114 782.492 241.125 781.583 242.169 779.717C243.214 777.85 243.252 775.219 242.208 773.305C241.087 771.295 238.573 770.194 236.755 771.391Z" fill="#CE9A90"/>
<path d="M247.583 779.286C244.567 780.626 244.18 785.937 246.771 788.234C248.705 789.909 251.721 789.143 252.92 786.607C255.086 782.061 251.219 777.659 247.583 779.286Z" fill="#CE9A90"/>
<path d="M216.49 784.359C213.473 785.698 213.087 791.01 215.678 793.307C217.611 794.981 220.628 794.216 221.827 791.68C224.031 787.182 220.164 782.732 216.49 784.359Z" fill="#CE9A90"/>
<path d="M15.5808 661.814C15.2714 659.517 15.3101 657.029 15.7742 654.828C18.1719 642.721 28.9231 638.654 36.8512 645.497C38.9009 647.267 40.7572 649.708 41.8401 652.77C42.9229 655.832 43.155 659.469 42.1108 662.244C41.0666 664.972 38.7075 666.503 36.5031 665.45C35.575 665.02 34.6081 664.254 33.912 663.393C33.1386 662.484 32.3651 661.574 31.2822 661.431C30.8181 661.383 30.3154 661.527 29.89 661.718C28.4591 662.388 27.5309 663.728 27.2989 665.546C27.1055 667.029 26.9121 668.752 25.9453 669.805C25.2878 670.522 24.3983 670.857 23.5475 670.905C18.9067 671.288 16.3156 666.886 15.5808 661.814Z" fill="#CE9A90"/>
<path d="M14.6906 633.677C11.558 636.74 12.5249 643.535 16.8176 643.917C18.6353 644.061 20.4916 642.721 21.2651 640.664C22.0385 638.606 21.6518 635.974 20.3369 634.395C18.906 632.577 16.3149 632.051 14.6906 633.677Z" fill="#CE9A90"/>
<path d="M26.0216 629.084C22.8891 632.146 23.8559 638.941 28.1487 639.324C29.9663 639.468 31.8227 638.128 32.5961 636.07C33.3696 634.013 32.9829 631.381 31.668 629.802C30.2757 627.984 27.6459 627.457 26.0216 629.084Z" fill="#CE9A90"/>
<path d="M37.8174 634.396C35.0329 636.405 35.4584 641.717 38.3589 643.391C40.4859 644.636 43.3864 643.152 44.1986 640.425C45.6295 635.448 41.182 631.955 37.8174 634.396Z" fill="#CE9A90"/>
<path d="M8.03912 646.406C5.25463 648.415 5.68004 653.727 8.58055 655.402C10.7076 656.646 13.6081 655.162 14.4202 652.435C15.8512 647.458 11.4037 643.965 8.03912 646.406Z" fill="#CE9A90"/>
<path d="M98.8446 778.425C99.7728 776.367 101.126 774.549 102.596 773.209C110.717 765.84 121.043 771.2 123.596 782.779C124.253 785.746 124.408 789.095 123.634 792.301C122.9 795.507 121.159 798.522 118.955 799.766C116.75 801.058 114.121 800.34 112.999 797.756C112.535 796.704 112.187 795.316 112.071 794.12C111.955 792.828 111.839 791.488 111.065 790.531C110.717 790.1 110.292 789.813 109.828 789.622C108.397 789 106.966 789.287 105.845 790.531C104.916 791.536 103.911 792.684 102.596 792.732C101.706 792.78 100.894 792.301 100.16 791.679C96.4855 788.378 96.7562 782.923 98.8446 778.425Z" fill="#CE9A90"/>
<path d="M112.729 756.126C108.707 755.983 105.961 761.964 109.055 765.648C110.37 767.227 112.497 767.658 114.16 766.653C115.823 765.696 116.867 763.352 116.712 761.103C116.519 758.662 114.779 756.174 112.729 756.126Z" fill="#CE9A90"/>
<path d="M123.79 761.582C119.768 761.438 117.022 767.42 120.116 771.104C121.431 772.683 123.558 773.114 125.221 772.109C126.884 771.152 127.928 768.807 127.773 766.558C127.618 764.118 125.878 761.678 123.79 761.582Z" fill="#CE9A90"/>
<path d="M130.132 775.027C126.961 774.405 124.524 778.76 125.878 782.348C126.883 784.98 129.861 786.129 131.911 784.693C135.585 782.014 133.961 775.793 130.132 775.027Z" fill="#CE9A90"/>
<path d="M101.011 760.624C97.8395 760.002 95.4031 764.357 96.7567 767.945C97.7622 770.577 100.74 771.726 102.79 770.29C106.464 767.658 104.839 761.438 101.011 760.624Z" fill="#CE9A90"/>
<path d="M336.611 653.344C337.268 651.143 338.312 649.037 339.588 647.41C346.55 638.415 357.494 641.525 361.594 652.339C362.638 655.114 363.257 658.416 362.986 661.718C362.677 665.019 361.4 668.369 359.428 670.091C357.417 671.814 354.748 671.67 353.279 669.374C352.66 668.417 352.119 667.173 351.848 665.976C351.539 664.732 351.268 663.44 350.34 662.675C349.953 662.34 349.489 662.148 349.025 662.053C347.517 661.765 346.163 662.34 345.235 663.775C344.461 664.971 343.61 666.311 342.334 666.646C341.445 666.885 340.594 666.598 339.782 666.12C335.644 663.632 335.18 658.177 336.611 653.344Z" fill="#CE9A90"/>
<path d="M347.168 628.414C343.224 629.132 341.29 635.592 344.887 638.606C346.395 639.85 348.561 639.85 350.069 638.511C351.577 637.171 352.273 634.683 351.809 632.482C351.268 630.089 349.218 628.031 347.168 628.414Z" fill="#CE9A90"/>
<path d="M358.848 631.429C354.903 632.146 352.97 638.606 356.566 641.621C358.075 642.865 360.24 642.865 361.749 641.525C363.257 640.185 363.953 637.697 363.489 635.496C362.947 633.103 360.898 631.046 358.848 631.429Z" fill="#CE9A90"/>
<path d="M366.931 643.343C363.721 643.391 361.942 648.224 363.759 651.43C365.113 653.822 368.207 654.301 370.024 652.435C373.273 649.085 370.837 643.295 366.931 643.343Z" fill="#CE9A90"/>
<path d="M336.262 635.352C333.052 635.4 331.273 640.232 333.09 643.438C334.444 645.831 337.538 646.309 339.356 644.443C342.604 641.094 340.168 635.304 336.262 635.352Z" fill="#CE9A90"/>
<path d="M223.451 424.285L225.346 424.859L227.202 426.39L228.672 428.687L228.981 431.271L228.788 433.663L227.975 435.625L226.544 437.3L224.533 438.4L221.865 438.353L218.887 437.3L216.296 436.773L214.014 436.965L211.423 437.73L208.755 438.975L192.125 448.21L189.07 450.219L186.44 452.755L184.274 456.057L182.495 459.598L181.064 462.038L178.937 464.335L175.96 465.34L173.446 465.244L170.932 463.235L169.965 459.598L169.733 456.344L170.275 453.904L170.932 452.421L168.921 452.086L167.181 450.937L165.788 448.832L164.899 445.53L165.479 441.798L168.264 438.64H171.976L175.186 439.644L178.396 440.123L181.335 439.597L184.97 437.587L203.572 427.395L207.13 425.098L209.412 422.036L211.384 417.92L213.163 414.284L215.252 411.891L218.307 411.317L220.743 412.37L222.87 414.38L224.108 416.629L224.533 419.787L224.031 422.705L223.451 424.285Z" fill="#CE9A90"/>
<path d="M223.449 288.866L225.344 289.44L227.2 290.972L228.67 293.268L228.979 295.852L228.786 298.245L227.974 300.207L226.543 301.881L224.532 302.982L221.864 302.934L218.886 301.881L216.295 301.355L214.013 301.546L211.422 302.312L208.753 303.556L192.124 312.791L189.068 314.801L186.439 317.337L184.273 320.639L182.494 324.18L181.063 326.62L178.936 328.917L175.958 329.922L173.444 329.826L170.931 327.816L169.964 324.18L169.732 320.926L170.273 318.485L170.931 317.002L168.92 316.667L167.179 315.519L165.787 313.413L164.897 310.112L165.478 306.379L168.262 303.221H171.975L175.185 304.226L178.395 304.705L181.334 304.178L184.969 302.168L203.571 291.976L207.129 289.68L209.411 286.617L211.383 282.502L213.162 278.865L215.25 276.473L218.306 275.899L220.742 276.951L222.869 278.961L224.107 281.21L224.532 284.368L224.029 287.287L223.449 288.866Z" fill="#CE9A90"/>
<path d="M223.449 74.2247L225.344 74.7989L227.2 76.3302L228.67 78.627L228.979 81.2109L228.786 83.6034L227.974 85.5653L226.543 87.24L224.532 88.3406L221.864 88.2927L218.886 87.24L216.295 86.7137L214.013 86.9051L211.422 87.6707L208.753 88.9148L192.124 98.1499L189.068 100.16L186.439 102.696L184.273 105.997L182.494 109.538L181.063 111.979L178.936 114.275L175.958 115.28L173.444 115.185L170.931 113.175L169.964 109.538L169.732 106.284L170.273 103.844L170.931 102.361L168.92 102.026L167.179 100.877L165.787 98.7719L164.897 95.4703L165.478 91.7379L168.262 88.5798H171.975L175.185 89.5847L178.395 90.0632L181.334 89.5368L184.969 87.5271L203.571 77.335L207.129 75.0382L209.411 71.9758L211.383 67.8607L213.162 64.224L215.25 61.8315L218.306 61.2573L220.742 62.31L222.869 64.3197L224.107 66.5687L224.532 69.7268L224.029 72.6457L223.449 74.2247Z" fill="#CE9A90"/>
<path d="M111.259 334.229L111.529 336.622L111.065 339.349L109.866 341.885L108.087 343.225L106.192 343.847L104.452 343.656L102.634 342.651L101.049 340.737L100.082 337.674L99.7726 333.846L99.1925 330.688L98.2256 328.152L96.6787 325.425L94.745 322.841L81.596 307.194L78.9662 304.466L76.0657 302.361L72.7785 301.117L69.4526 300.399L67.1322 299.681L64.6184 298.102L62.7234 295.04L61.8726 292.121L62.4527 288.484L64.8117 286.044L67.1708 284.56L69.1818 284.273L70.5354 284.465L70.0327 282.024L70.2647 279.584L71.3089 277.192L73.4746 274.99L76.4911 274.225L79.8944 276.235L81.2867 280.493L81.7121 284.56L82.5242 288.436L84.0325 291.594L86.8943 295.04L101.474 312.601L104.529 315.807L107.701 317.242L111.529 318.008L114.933 318.726L117.485 320.209L119.032 323.511L119.187 326.669L118.452 329.875L117.253 332.171L115.01 333.798L112.651 334.325L111.259 334.229Z" fill="#CE9A90"/>
<path d="M111.259 119.587L111.529 121.98L111.065 124.707L109.866 127.243L108.087 128.583L106.192 129.205L104.452 129.014L102.634 128.009L101.049 126.095L100.082 123.033L99.7726 119.205L99.1925 116.046L98.2256 113.51L96.6787 110.783L94.745 108.199L81.596 92.552L78.9662 89.8245L76.0657 87.7191L72.7785 86.475L69.4526 85.7572L67.1322 85.0395L64.6184 83.4604L62.7234 80.398L61.8726 77.4791L62.4527 73.8425L64.8117 71.4021L67.1708 69.9188L69.1818 69.6317L70.5354 69.8231L70.0327 67.3827L70.2647 64.9424L71.3089 62.5498L73.4746 60.3487L76.4911 59.5831L79.8944 61.5928L81.2867 65.8515L81.7121 69.9188L82.5242 73.7947L84.0325 76.9528L86.8943 80.398L101.474 97.959L104.529 101.165L107.701 102.601L111.529 103.366L114.933 104.084L117.485 105.567L119.032 108.869L119.187 112.027L118.452 115.233L117.253 117.53L115.01 119.157L112.651 119.683L111.259 119.587Z" fill="#CE9A90"/>
<path d="M109.712 533.764L109.983 536.157L109.519 538.884L108.32 541.42L106.541 542.76L104.646 543.382L102.906 543.19L101.088 542.186L99.5024 540.272L98.5356 537.209L98.2262 533.381L97.6461 530.223L96.6793 527.687L95.1323 524.96L93.1986 522.376L80.0497 506.729L77.4199 504.001L74.5193 501.896L71.2321 500.652L67.9062 499.934L65.5858 499.216L63.072 497.637L61.177 494.575L60.3262 491.656L60.9063 488.019L63.2654 485.579L65.6244 484.095L67.6355 483.808L68.989 484L68.4863 481.559L68.7183 479.119L69.7625 476.726L71.9282 474.525L74.9448 473.76L78.348 475.769L79.7403 480.028L80.1657 484.095L80.9778 487.971L82.4861 491.129L85.3479 494.575L99.9278 512.136L102.983 515.342L106.154 516.777L109.983 517.543L113.386 518.261L115.939 519.744L117.486 523.046L117.64 526.204L116.905 529.41L115.707 531.706L113.464 533.333L111.104 533.86L109.712 533.764Z" fill="#CE9A90"/>
<path d="M171.744 612.384L169.849 611.666L168.07 609.944L166.717 607.599L166.485 605.015L166.833 602.623L167.722 600.757L169.231 599.13L171.28 598.173L173.949 598.412L176.888 599.656L179.402 600.374L181.684 600.326L184.352 599.752L187.059 598.699L204.076 590.66L207.208 588.842L209.954 586.497L212.274 583.339L214.208 579.894L215.755 577.597L217.959 575.492L220.976 574.678L223.49 574.917L225.926 577.119L226.7 580.803L226.777 584.057L226.158 586.449L225.423 587.885L227.396 588.363L229.136 589.655L230.412 591.856L231.147 595.206L230.373 598.89L227.473 601.857L223.76 601.618L220.589 600.374L217.418 599.656L214.479 599.991L210.727 601.714L191.7 610.614L188.026 612.671L185.628 615.59L183.463 619.562L181.529 623.055L179.324 625.304L176.269 625.639L173.91 624.442L171.86 622.289L170.7 619.945L170.43 616.739L171.048 613.915L171.744 612.384Z" fill="#CE9A90"/>
<path d="M110.988 727.128L111.452 729.472L111.22 732.248L110.292 734.927L108.591 736.459L106.812 737.368L105.033 737.416L103.138 736.65L101.436 734.975L100.16 732.009L99.541 728.276L98.6902 725.214L97.4913 722.821L95.7123 720.333L93.5853 717.988L79.1987 704.16L76.3369 701.767L73.2817 700.092L69.8784 699.279L66.5138 698.992L64.1547 698.561L61.5249 697.317L59.3979 694.542L58.2764 691.766L58.5471 688.082L60.6741 685.307L62.8785 683.536L64.8895 682.962L66.2431 683.01L65.547 680.665V678.177L66.3591 675.689L68.3315 673.201L71.2707 672.052L74.8286 673.583L76.5689 677.651L77.3424 681.622L78.5026 685.355L80.2816 688.321L83.4141 691.384L99.425 706.887L102.712 709.71L105.999 710.715L109.867 711.002L113.309 711.242L115.977 712.39L117.834 715.452L118.22 718.563L117.756 721.864L116.751 724.305L114.662 726.219L112.381 727.032L110.988 727.128Z" fill="#CE9A90"/>
<path d="M299.753 591.519L299.057 593.768L297.587 595.873L295.576 597.405L293.488 597.5L291.593 596.974L290.124 595.778L288.925 593.816L288.267 591.232L288.615 587.93L289.775 584.389L290.51 581.279L290.626 578.456L290.317 575.154L289.659 571.757L284.129 550.224L282.853 546.253L281.151 542.76L278.715 539.697L276.085 537.065L274.306 535.056L272.72 532.185L272.256 528.405L272.604 525.342L274.499 522.471L277.555 521.706L280.184 521.801L282.079 522.71L283.201 523.715L283.704 521.275L284.825 519.265L286.682 517.782L289.427 517.112L292.367 518.26L294.571 521.993L294.146 526.586L292.947 530.414L292.173 534.29L292.289 537.975L293.449 542.712L299.521 566.733L300.952 571.374L303.156 574.484L306.25 577.451L308.958 580.035L310.62 582.858L310.736 586.686L309.615 589.509L307.759 591.902L305.825 593.242L303.195 593.337L300.913 592.38L299.753 591.519Z" fill="#CE9A90"/>
<path d="M291.632 762.344L290.936 764.593L289.466 766.699L287.455 768.23L285.367 768.326L283.472 767.799L282.002 766.603L280.804 764.641L280.146 762.057L280.494 758.755L281.654 755.215L282.389 752.104L282.505 749.281L282.196 745.979L281.538 742.582L276.008 721.049L274.732 717.078L273.03 713.585L270.594 710.522L267.964 707.891L266.185 705.881L264.599 703.01L264.135 699.23L264.483 696.167L266.378 693.296L269.434 692.531L272.063 692.626L273.958 693.536L275.08 694.54L275.583 692.1L276.704 690.09L278.56 688.607L281.306 687.937L284.245 689.085L286.45 692.818L286.024 697.411L284.826 701.239L284.052 705.115L284.168 708.8L285.328 713.537L291.4 737.558L292.831 742.199L295.035 745.31L298.129 748.276L300.836 750.86L302.499 753.683L302.615 757.511L301.494 760.335L299.638 762.727L297.704 764.067L295.074 764.163L292.792 763.206L291.632 762.344Z" fill="#CE9A90"/>
<path d="M298.362 393.23L297.666 395.479L296.196 397.632L294.224 399.164L292.097 399.259L290.202 398.733L288.732 397.489L287.533 395.527L286.876 392.991L287.224 389.689L288.384 386.148L289.119 383.038L289.196 380.215L288.887 376.913L288.229 373.468L282.66 351.983L281.423 348.06L279.683 344.519L277.246 341.456L274.616 338.872L272.837 336.863L271.252 333.992L270.749 330.211L271.136 327.101L273.031 324.278L276.047 323.464L278.677 323.56L280.572 324.517L281.694 325.474L282.196 323.034L283.318 321.024L285.174 319.541L287.92 318.871L290.859 319.971L293.064 323.752L292.677 328.345L291.478 332.173L290.705 336.049L290.821 339.686L291.981 344.423L298.091 368.444L299.522 373.085L301.765 376.195L304.82 379.162L307.528 381.746L309.229 384.569L309.345 388.397L308.224 391.22L306.367 393.613L304.434 394.953L301.804 395.048L299.522 394.139L298.362 393.23Z" fill="#CE9A90"/>
<path d="M298.362 178.589L297.666 180.838L296.196 182.991L294.224 184.522L292.097 184.618L290.202 184.092L288.732 182.847L287.533 180.886L286.876 178.35L287.224 175.048L288.384 171.507L289.119 168.397L289.196 165.574L288.887 162.272L288.229 158.827L282.66 137.342L281.423 133.418L279.683 129.877L277.246 126.815L274.616 124.231L272.837 122.221L271.252 119.35L270.749 115.57L271.136 112.46L273.031 109.637L276.047 108.823L278.677 108.919L280.572 109.876L281.694 110.833L282.196 108.392L283.318 106.383L285.174 104.899L287.92 104.229L290.859 105.33L293.064 109.11L292.677 113.704L291.478 117.532L290.705 121.408L290.821 125.044L291.981 129.782L298.091 153.802L299.522 158.444L301.765 161.554L304.82 164.521L307.528 167.105L309.229 169.928L309.345 173.756L308.224 176.579L306.367 178.972L304.434 180.311L301.804 180.407L299.522 179.498L298.362 178.589Z" fill="#CE9A90"/>
<path d="M298.633 393.564L297.936 395.861L296.467 397.966L294.456 399.497L292.367 399.593L290.472 399.067L289.003 397.87L287.804 395.908L287.146 393.325L287.456 390.023L288.655 386.482L289.351 383.42L289.467 380.596L289.158 377.247L288.461 373.85L282.931 352.365L281.655 348.393L279.915 344.9L277.478 341.838L274.848 339.254L273.069 337.244L271.484 334.373L270.981 330.593L271.368 327.483L273.263 324.612L276.279 323.846L278.909 323.942L280.804 324.851L281.926 325.856L282.428 323.415L283.55 321.406L285.406 319.922L288.152 319.205L291.091 320.353L293.296 324.133L292.909 328.679L291.71 332.507L290.936 336.383L291.052 340.067L292.251 344.804L298.323 368.825L299.793 373.419L301.997 376.577L305.091 379.496L307.798 382.08L309.461 384.903L309.577 388.731L308.494 391.602L306.638 393.994L304.704 395.286L302.074 395.43L299.793 394.473L298.633 393.564Z" fill="#CE9A90"/>
<path d="M298.633 178.922L297.936 181.219L296.467 183.324L294.456 184.856L292.367 184.951L290.472 184.425L289.003 183.229L287.804 181.267L287.146 178.683L287.456 175.381L288.655 171.84L289.351 168.778L289.467 165.955L289.158 162.605L288.461 159.208L282.931 137.723L281.655 133.752L279.915 130.258L277.478 127.196L274.848 124.612L273.069 122.602L271.484 119.731L270.981 115.951L271.368 112.841L273.263 109.97L276.279 109.204L278.909 109.3L280.804 110.209L281.926 111.214L282.428 108.774L283.55 106.764L285.406 105.281L288.152 104.563L291.091 105.711L293.296 109.491L292.909 114.037L291.71 117.865L290.936 121.741L291.052 125.426L292.251 130.163L298.323 154.184L299.793 158.777L301.997 161.935L305.091 164.854L307.798 167.438L309.461 170.261L309.577 174.089L308.494 176.96L306.638 179.353L304.704 180.645L302.074 180.788L299.793 179.831L298.633 178.922Z" fill="#CE9A90"/>
<path d="M255.938 741.006C252.186 742.728 251.413 749.475 255.396 751.485C257.098 752.346 259.186 751.772 260.424 750.097C261.661 748.422 261.932 745.791 261.12 743.781C260.23 741.628 257.871 740.144 255.938 741.006Z" fill="#CE9A90"/>
<path d="M33.5255 566.591C27.2604 569.462 25.9455 580.803 32.636 584.152C35.4592 585.588 38.9785 584.583 41.0282 581.808C43.0779 579.032 43.5806 574.63 42.1884 571.281C40.6801 567.596 36.7741 565.108 33.5255 566.591Z" fill="#CE9A90"/>
<path d="M121.314 443.616C115.049 446.487 113.734 457.828 120.424 461.177C123.247 462.613 126.767 461.608 128.816 458.833C130.866 456.057 131.369 451.655 129.976 448.306C128.468 444.621 124.562 442.133 121.314 443.616Z" fill="#CE9A90"/>
<path d="M199.822 527.354C193.557 530.225 192.242 541.566 198.932 544.915C201.756 546.351 205.275 545.346 207.325 542.571C209.374 539.795 209.877 535.393 208.485 532.044C206.977 528.359 203.07 525.871 199.822 527.354Z" fill="#CE9A90"/>
<path d="M116.712 481.179C112.961 482.901 112.187 489.648 116.171 491.658C117.872 492.519 119.961 491.945 121.198 490.27C122.436 488.596 122.706 485.964 121.894 483.954C121.005 481.801 118.646 480.317 116.712 481.179Z" fill="#CE9A90"/>
<path d="M172.788 549.126C169.037 550.849 168.263 557.596 172.247 559.606C173.948 560.467 176.037 559.893 177.274 558.218C178.512 556.543 178.783 553.911 177.97 551.902C177.081 549.748 174.722 548.265 172.788 549.126Z" fill="#CE9A90"/>
<path d="M267.539 572.094C263.787 573.817 263.014 580.564 266.997 582.574C268.699 583.435 270.787 582.861 272.025 581.186C273.262 579.511 273.533 576.879 272.721 574.87C271.831 572.716 269.472 571.233 267.539 572.094Z" fill="#CE9A90"/>
<path d="M160.027 507.162C157.397 508.358 156.855 513.095 159.64 514.531C160.839 515.105 162.308 514.722 163.159 513.574C164.01 512.425 164.242 510.559 163.662 509.171C163.005 507.592 161.38 506.54 160.027 507.162Z" fill="#CE9A90"/>
<path d="M294.572 433.089C288.307 435.96 286.992 447.3 293.682 450.65C296.506 452.086 300.025 451.081 302.075 448.305C304.124 445.53 304.627 441.128 303.235 437.778C301.727 434.094 297.82 431.606 294.572 433.089Z" fill="#CE9A90"/>
<path d="M279.528 458.211C275.777 459.934 275.003 466.681 278.987 468.69C280.688 469.552 282.777 468.977 284.014 467.303C285.252 465.628 285.522 462.996 284.71 460.986C283.821 458.833 281.462 457.35 279.528 458.211Z" fill="#CE9A90"/>
<path d="M259.804 440.171C257.174 441.367 256.633 446.105 259.417 447.54C260.616 448.114 262.086 447.732 262.937 446.583C263.787 445.435 264.019 443.569 263.439 442.181C262.782 440.602 261.158 439.549 259.804 440.171Z" fill="#CE9A90"/>
<path d="M307.372 538.743C304.743 539.939 304.201 544.676 306.986 546.112C308.184 546.686 309.654 546.303 310.505 545.155C311.356 544.006 311.588 542.14 311.008 540.752C310.35 539.173 308.726 538.121 307.372 538.743Z" fill="#CE9A90"/>
<path d="M30.0837 502.232C26.3323 503.955 25.5589 510.702 29.5422 512.712C31.2439 513.573 33.3322 512.999 34.5698 511.324C35.8073 509.649 36.078 507.018 35.2659 505.008C34.3764 502.855 32.0173 501.371 30.0837 502.232Z" fill="#CE9A90"/>
<path d="M2.23855 494.242C-0.391251 495.438 -0.93268 500.175 1.85181 501.611C3.05069 502.185 4.52028 501.802 5.3711 500.654C6.22192 499.506 6.45396 497.639 5.87386 496.252C5.21641 494.673 3.59212 493.62 2.23855 494.242Z" fill="#CE9A90"/>
<path d="M57.1555 592.814C54.5257 594.01 53.9843 598.747 56.7688 600.183C57.9677 600.757 59.4373 600.374 60.2881 599.226C61.1389 598.077 61.3709 596.211 60.7908 594.823C60.1334 593.244 58.5091 592.192 57.1555 592.814Z" fill="#CE9A90"/>
<path d="M357.996 566.591C351.731 569.462 350.416 580.803 357.107 584.152C359.93 585.588 363.449 584.583 365.499 581.808C367.549 579.032 368.051 574.63 366.659 571.281C365.151 567.596 361.245 565.108 357.996 566.591Z" fill="#CE9A90"/>
<path d="M354.554 502.232C350.803 503.955 350.029 510.702 354.012 512.712C355.714 513.573 357.802 512.999 359.04 511.324C360.278 509.649 360.548 507.018 359.736 505.008C358.847 502.855 356.488 501.371 354.554 502.232Z" fill="#CE9A90"/>
<path d="M326.709 494.242C324.079 495.438 323.538 500.175 326.323 501.611C327.521 502.185 328.991 501.802 329.842 500.654C330.693 499.506 330.925 497.639 330.345 496.252C329.687 494.673 328.063 493.62 326.709 494.242Z" fill="#CE9A90"/>
<path d="M33.5255 368.013C27.2604 370.884 25.9455 382.225 32.636 385.574C35.4592 387.01 38.9785 386.005 41.0282 383.229C43.0779 380.454 43.5806 376.052 42.1884 372.702C40.6801 369.018 36.7741 366.53 33.5255 368.013Z" fill="#CE9A90"/>
<path d="M121.314 245.038C115.049 247.909 113.734 259.249 120.424 262.599C123.247 264.034 126.767 263.029 128.816 260.254C130.866 257.479 131.369 253.077 129.976 249.727C128.468 246.043 124.562 243.554 121.314 245.038Z" fill="#CE9A90"/>
<path d="M121.314 161.062C115.049 163.933 113.734 175.273 120.424 178.623C123.247 180.058 126.767 179.053 128.816 176.278C130.866 173.503 131.369 169.1 129.976 165.751C128.468 162.066 124.562 159.578 121.314 161.062Z" fill="#CE9A90"/>
<path d="M121.314 30.3966C115.049 33.2676 113.734 44.6081 120.424 47.9576C123.247 49.3931 126.767 48.3883 128.816 45.613C130.866 42.8376 131.369 38.4354 129.976 35.0859C128.468 31.4014 124.562 28.9132 121.314 30.3966Z" fill="#CE9A90"/>
<path d="M190.926 369.448C184.661 372.319 183.346 383.66 190.037 387.009C192.86 388.445 196.379 387.44 198.429 384.665C200.479 381.889 200.982 377.487 199.589 374.138C198.081 370.453 194.175 367.965 190.926 369.448Z" fill="#CE9A90"/>
<path d="M116.712 282.6C112.961 284.323 112.187 291.07 116.171 293.079C117.872 293.941 119.961 293.366 121.198 291.692C122.436 290.017 122.706 287.385 121.894 285.375C121.005 283.222 118.646 281.739 116.712 282.6Z" fill="#CE9A90"/>
<path d="M116.712 198.624C112.961 200.346 112.187 207.093 116.171 209.103C117.872 209.964 119.961 209.39 121.198 207.715C122.436 206.041 122.706 203.409 121.894 201.399C121.005 199.246 118.646 197.763 116.712 198.624Z" fill="#CE9A90"/>
<path d="M116.712 67.9588C112.961 69.6814 112.187 76.4283 116.171 78.438C117.872 79.2993 119.961 78.7251 121.198 77.0504C122.436 75.3756 122.706 72.7438 121.894 70.7341C121.005 68.5809 118.646 67.0975 116.712 67.9588Z" fill="#CE9A90"/>
<path d="M163.894 391.22C160.142 392.943 159.369 399.69 163.352 401.699C165.054 402.561 167.142 401.986 168.38 400.312C169.617 398.637 169.888 396.005 169.076 393.995C168.186 391.842 165.827 390.359 163.894 391.22Z" fill="#CE9A90"/>
<path d="M267.539 373.516C263.787 375.239 263.014 381.986 266.997 383.995C268.699 384.857 270.787 384.282 272.025 382.608C273.262 380.933 273.533 378.301 272.721 376.291C271.831 374.138 269.472 372.655 267.539 373.516Z" fill="#CE9A90"/>
<path d="M144.944 342.557C142.314 343.753 141.772 348.49 144.557 349.926C145.756 350.5 147.225 350.117 148.076 348.969C148.927 347.82 149.159 345.954 148.579 344.567C147.921 342.988 146.297 341.935 144.944 342.557Z" fill="#CE9A90"/>
<path d="M144.944 127.915C142.314 129.112 141.772 133.849 144.557 135.284C145.756 135.858 147.225 135.476 148.076 134.327C148.927 133.179 149.159 131.313 148.579 129.925C147.921 128.346 146.297 127.293 144.944 127.915Z" fill="#CE9A90"/>
<path d="M228.479 220.538C225.849 221.735 225.308 226.472 228.092 227.907C229.291 228.482 230.761 228.099 231.611 226.95C232.462 225.802 232.694 223.936 232.114 222.548C231.457 220.969 229.832 219.916 228.479 220.538Z" fill="#CE9A90"/>
<path d="M228.479 5.89727C225.849 7.09353 225.308 11.8307 228.092 13.2662C229.291 13.8404 230.761 13.4576 231.611 12.3092C232.462 11.1608 232.694 9.29464 232.114 7.90698C231.457 6.32792 229.832 5.27522 228.479 5.89727Z" fill="#CE9A90"/>
<path d="M294.572 234.511C288.307 237.382 286.992 248.722 293.682 252.072C296.506 253.507 300.025 252.503 302.075 249.727C304.124 246.952 304.627 242.55 303.235 239.2C301.727 235.516 297.82 233.027 294.572 234.511Z" fill="#CE9A90"/>
<path d="M294.572 19.8692C288.307 22.7402 286.992 34.0808 293.682 37.4303C296.506 38.8658 300.025 37.8609 302.075 35.0856C304.124 32.3103 304.627 27.9081 303.235 24.5586C301.727 20.8741 297.82 18.3859 294.572 19.8692Z" fill="#CE9A90"/>
<path d="M279.528 259.632C275.777 261.355 275.003 268.101 278.987 270.111C280.688 270.972 282.777 270.398 284.014 268.723C285.252 267.049 285.522 264.417 284.71 262.407C283.821 260.254 281.462 258.771 279.528 259.632Z" fill="#CE9A90"/>
<path d="M279.528 44.9906C275.777 46.7132 275.003 53.4601 278.987 55.4698C280.688 56.3311 282.777 55.7569 284.014 54.0821C285.252 52.4073 285.522 49.7756 284.71 47.7659C283.821 45.6126 281.462 44.1292 279.528 44.9906Z" fill="#CE9A90"/>
<path d="M259.804 241.593C257.174 242.789 256.633 247.526 259.417 248.962C260.616 249.536 262.086 249.153 262.937 248.005C263.787 246.856 264.019 244.99 263.439 243.602C262.782 242.023 261.158 240.971 259.804 241.593Z" fill="#CE9A90"/>
<path d="M259.804 26.951C257.174 28.1472 256.633 32.8844 259.417 34.3199C260.616 34.8941 262.086 34.5113 262.937 33.3629C263.787 32.2145 264.019 30.3484 263.439 28.9607C262.782 27.3816 261.158 26.3289 259.804 26.951Z" fill="#CE9A90"/>
<path d="M307.372 340.164C304.743 341.361 304.201 346.098 306.986 347.533C308.184 348.108 309.654 347.725 310.505 346.576C311.356 345.428 311.588 343.562 311.008 342.174C310.35 340.595 308.726 339.542 307.372 340.164Z" fill="#CE9A90"/>
<path d="M307.372 125.523C304.743 126.719 304.201 131.456 306.986 132.892C308.184 133.466 309.654 133.083 310.505 131.935C311.356 130.786 311.588 128.92 311.008 127.532C310.35 125.953 308.726 124.901 307.372 125.523Z" fill="#CE9A90"/>
<path d="M30.0837 303.654C26.3323 305.377 25.5589 312.124 29.5422 314.133C31.2439 314.995 33.3322 314.421 34.5698 312.746C35.8073 311.071 36.078 308.439 35.2659 306.43C34.3764 304.276 32.0173 302.793 30.0837 303.654Z" fill="#CE9A90"/>
<path d="M30.0837 89.013C26.3323 90.7356 25.5589 97.4825 29.5422 99.4922C31.2439 100.354 33.3322 99.7793 34.5698 98.1046C35.8073 96.4298 36.078 93.798 35.2659 91.7883C34.3764 89.6351 32.0173 88.1517 30.0837 89.013Z" fill="#CE9A90"/>
<path d="M2.23855 295.663C-0.391251 296.859 -0.93268 301.597 1.85181 303.032C3.05069 303.606 4.52028 303.223 5.3711 302.075C6.22192 300.927 6.45396 299.061 5.87386 297.673C5.21641 296.094 3.59212 295.041 2.23855 295.663Z" fill="#CE9A90"/>
<path d="M2.23855 81.0221C-0.391251 82.2184 -0.93268 86.9556 1.85181 88.3911C3.05069 88.9653 4.52028 88.5825 5.3711 87.4341C6.22192 86.2857 6.45396 84.4195 5.87386 83.0319C5.21641 81.4528 3.59212 80.4001 2.23855 81.0221Z" fill="#CE9A90"/>
<path d="M57.1555 394.235C54.5257 395.431 53.9843 400.168 56.7688 401.604C57.9677 402.178 59.4373 401.795 60.2881 400.647C61.1389 399.498 61.3709 397.632 60.7908 396.244C60.1334 394.665 58.5091 393.613 57.1555 394.235Z" fill="#CE9A90"/>
<path d="M357.996 368.013C351.731 370.884 350.416 382.225 357.107 385.574C359.93 387.01 363.449 386.005 365.499 383.229C367.549 380.454 368.051 376.052 366.659 372.702C365.151 369.018 361.245 366.53 357.996 368.013Z" fill="#CE9A90"/>
<path d="M231.933 171.577C225.668 174.448 224.353 185.789 231.044 189.138C233.867 190.574 237.386 189.569 239.436 186.794C241.486 184.018 241.988 179.616 240.596 176.267C239.088 172.582 235.182 170.094 231.933 171.577Z" fill="#CE9A90"/>
<path d="M58.07 171.577C51.8048 174.448 50.49 185.789 57.1805 189.138C60.0037 190.574 63.5229 189.569 65.5726 186.794C67.6223 184.018 68.1251 179.616 66.7328 176.267C65.2246 172.582 61.3185 170.094 58.07 171.577Z" fill="#CE9A90"/>
<path d="M177.056 143.106C173.304 144.829 172.531 151.576 176.514 153.585C178.216 154.447 180.304 153.873 181.542 152.198C182.779 150.523 183.05 147.891 182.238 145.882C181.349 143.728 178.989 142.245 177.056 143.106Z" fill="#CE9A90"/>
<path d="M3.19205 143.106C-0.559276 144.829 -1.33275 151.576 2.65062 153.585C4.35225 154.447 6.44062 153.873 7.67817 152.198C8.91572 150.523 9.18641 147.891 8.37426 145.882C7.48477 143.728 5.12573 142.245 3.19205 143.106Z" fill="#CE9A90"/>
<path d="M204.901 193.349C201.149 195.072 200.376 201.819 204.359 203.828C206.061 204.69 208.149 204.115 209.387 202.441C210.624 200.766 210.895 198.134 210.083 196.124C209.193 193.971 206.834 192.488 204.901 193.349Z" fill="#CE9A90"/>
<path d="M31.0373 193.349C27.2859 195.072 26.5125 201.819 30.4958 203.828C32.1975 204.69 34.2858 204.115 35.5234 202.441C36.7609 200.766 37.0316 198.134 36.2195 196.124C35.33 193.971 32.9709 192.488 31.0373 193.349Z" fill="#CE9A90"/>
<path d="M352.131 203.79C345.866 200.919 344.551 189.578 351.242 186.229C354.065 184.793 357.584 185.798 359.634 188.574C361.684 191.349 362.187 195.751 360.794 199.101C359.286 202.785 355.38 205.273 352.131 203.79Z" fill="#CE9A90"/>
<path d="M325.098 182.018C321.346 180.295 320.573 173.548 324.556 171.539C326.258 170.677 328.346 171.251 329.584 172.926C330.821 174.601 331.092 177.233 330.28 179.242C329.391 181.396 327.031 182.879 325.098 182.018Z" fill="#CE9A90"/>
<path d="M177.056 185.358C174.426 186.554 173.885 191.292 176.669 192.727C177.868 193.301 179.338 192.919 180.188 191.77C181.039 190.622 181.271 188.756 180.691 187.368C180.034 185.789 178.41 184.736 177.056 185.358Z" fill="#CE9A90"/>
<path d="M3.19265 185.358C0.562851 186.554 0.0214218 191.292 2.80591 192.727C4.00479 193.301 5.47438 192.919 6.32519 191.77C7.17601 190.622 7.40802 188.756 6.82792 187.368C6.17047 185.789 4.54622 184.736 3.19265 185.358Z" fill="#CE9A90"/>
<path d="M354.554 303.654C350.803 305.377 350.029 312.124 354.012 314.133C355.714 314.995 357.802 314.421 359.04 312.746C360.278 311.071 360.548 308.439 359.736 306.43C358.847 304.276 356.488 302.793 354.554 303.654Z" fill="#CE9A90"/>
<path d="M354.554 89.013C350.803 90.7356 350.029 97.4825 354.012 99.4922C355.714 100.354 357.802 99.7793 359.04 98.1046C360.278 96.4298 360.548 93.798 359.736 91.7883C358.847 89.6351 356.488 88.1517 354.554 89.013Z" fill="#CE9A90"/>
<path d="M326.709 295.663C324.079 296.859 323.538 301.597 326.323 303.032C327.521 303.606 328.991 303.223 329.842 302.075C330.693 300.927 330.925 299.061 330.345 297.673C329.687 296.094 328.063 295.041 326.709 295.663Z" fill="#CE9A90"/>
<path d="M326.709 81.0223C324.079 82.2185 323.538 86.9557 326.323 88.3912C327.521 88.9654 328.991 88.5826 329.842 87.4342C330.693 86.2858 330.925 84.4196 330.345 83.032C329.687 81.4529 328.063 80.4002 326.709 81.0223Z" fill="#CE9A90"/>
<path d="M33.5255 763.735C27.2604 766.606 25.9455 777.946 32.636 781.296C35.4592 782.731 38.9785 781.726 41.0282 778.951C43.0779 776.176 43.5806 771.774 42.1884 768.424C40.6801 764.74 36.7741 762.251 33.5255 763.735Z" fill="#CE9A90"/>
<path d="M121.314 640.759C115.049 643.63 113.734 654.971 120.424 658.32C123.247 659.756 126.767 658.751 128.816 655.976C130.866 653.2 131.369 648.798 129.976 645.449C128.468 641.764 124.562 639.276 121.314 640.759Z" fill="#CE9A90"/>
<path d="M192.086 735.981C185.821 738.852 184.506 750.193 191.197 753.542C194.02 754.978 197.539 753.973 199.589 751.198C201.638 748.422 202.141 744.02 200.749 740.671C199.241 736.986 195.335 734.498 192.086 735.981Z" fill="#CE9A90"/>
<path d="M116.712 678.322C112.961 680.045 112.187 686.792 116.171 688.801C117.872 689.663 119.961 689.088 121.198 687.414C122.436 685.739 122.706 683.107 121.894 681.097C121.005 678.944 118.646 677.461 116.712 678.322Z" fill="#CE9A90"/>
<path d="M165.054 757.753C161.303 759.476 160.529 766.223 164.512 768.232C166.214 769.094 168.302 768.52 169.54 766.845C170.778 765.17 171.048 762.538 170.236 760.529C169.347 758.375 166.988 756.892 165.054 757.753Z" fill="#CE9A90"/>
<path d="M160.027 698.084C157.397 699.28 156.855 704.017 159.64 705.453C160.839 706.027 162.308 705.644 163.159 704.496C164.01 703.348 164.242 701.481 163.662 700.094C163.005 698.515 161.38 697.462 160.027 698.084Z" fill="#CE9A90"/>
<path d="M294.572 630.232C288.307 633.103 286.992 644.444 293.682 647.793C296.506 649.229 300.025 648.224 302.075 645.449C304.124 642.673 304.627 638.271 303.235 634.922C301.727 631.237 297.82 628.749 294.572 630.232Z" fill="#CE9A90"/>
<path d="M279.528 655.353C275.777 657.076 275.003 663.823 278.987 665.833C280.688 666.694 282.777 666.12 284.014 664.445C285.252 662.77 285.522 660.138 284.71 658.129C283.821 655.976 281.462 654.492 279.528 655.353Z" fill="#CE9A90"/>
<path d="M259.804 637.314C257.174 638.511 256.633 643.248 259.417 644.683C260.616 645.257 262.086 644.875 262.937 643.726C263.787 642.578 264.019 640.712 263.439 639.324C262.782 637.745 261.158 636.692 259.804 637.314Z" fill="#CE9A90"/>
<path d="M307.372 722.488C304.743 723.684 304.201 728.421 306.986 729.857C308.184 730.431 309.654 730.048 310.505 728.9C311.356 727.751 311.588 725.885 311.008 724.497C310.35 722.918 308.726 721.866 307.372 722.488Z" fill="#CE9A90"/>
<path d="M30.0837 699.376C26.3323 701.098 25.5589 707.845 29.5422 709.855C31.2439 710.716 33.3322 710.142 34.5698 708.467C35.8073 706.793 36.078 704.161 35.2659 702.151C34.3764 699.998 32.0173 698.515 30.0837 699.376Z" fill="#CE9A90"/>
<path d="M2.23855 691.385C-0.391251 692.581 -0.93268 697.318 1.85181 698.754C3.05069 699.328 4.52028 698.945 5.3711 697.797C6.22192 696.648 6.45396 694.782 5.87386 693.395C5.21641 691.816 3.59212 690.763 2.23855 691.385Z" fill="#CE9A90"/>
<path d="M57.1555 789.956C54.5257 791.153 53.9843 795.89 56.7688 797.325C57.9677 797.9 59.4373 797.517 60.2881 796.368C61.1389 795.22 61.3709 793.354 60.7908 791.966C60.1334 790.387 58.5091 789.334 57.1555 789.956Z" fill="#CE9A90"/>
<path d="M352.582 739.331C346.317 742.202 345.002 753.542 351.692 756.892C354.515 758.327 358.035 757.322 360.084 754.547C362.134 751.772 362.637 747.37 361.245 744.02C359.736 740.336 355.83 737.847 352.582 739.331Z" fill="#CE9A90"/>
<path d="M354.554 699.376C350.803 701.098 350.029 707.845 354.012 709.855C355.714 710.716 357.802 710.142 359.04 708.467C360.278 706.793 360.548 704.161 359.736 702.151C358.847 699.998 356.488 698.515 354.554 699.376Z" fill="#CE9A90"/>
<path d="M296.93 791.248C293.179 792.971 292.406 799.718 296.389 801.728C298.091 802.589 300.179 802.015 301.416 800.34C302.654 798.665 302.925 796.034 302.113 794.024C301.223 791.871 298.864 790.387 296.93 791.248Z" fill="#CE9A90"/>
<path d="M326.709 691.385C324.079 692.581 323.538 697.318 326.323 698.754C327.521 699.328 328.991 698.945 329.842 697.797C330.693 696.648 330.925 694.782 330.345 693.395C329.687 691.815 328.063 690.763 326.709 691.385Z" fill="#CE9A90"/>
<path d="M366.543 789.956C363.913 791.153 363.372 795.89 366.156 797.325C367.355 797.9 368.825 797.517 369.676 796.368C370.527 795.22 370.759 793.354 370.179 791.966C369.521 790.387 367.897 789.334 366.543 789.956Z" fill="#CE9A90"/>
</g>
<rect width="375" height="812" fill="#D9C7B8" fill-opacity="0.4"/>
<g filter="url(#filter0_b)">
<rect x="120.5" y="799" width="134" height="5" rx="2.5" fill="#D9C7B8" fill-opacity="0.4"/>
</g>
<path d="M188 106C81.409 106 -5 167.684 -5 243.775V812H381V243.775C381 167.684 294.591 106 188 106Z" fill="white"/>
</g>
<defs>
<filter id="filter0_b" x="-24" y="754" width="423" height="82" filterUnits="userSpaceOnUse" color-interpolation-filters="sRGB">
<feFlood flood-opacity="0" result="BackgroundImageFix"/>
<feGaussianBlur in="BackgroundImage" stdDeviation="12"/>
<feComposite in2="SourceAlpha" operator="in" result="effect1_backgroundBlur"/>
<feBlend mode="normal" in="SourceGraphic" in2="effect1_backgroundBlur" result="shape"/>
</filter>
<clipPath id="clip0">
<rect width="375" height="812" fill="white"/>
</clipPath>
</defs>
</svg>
